<?xml version="1.0" encoding="UTF-8"?> <svg xmlns="http://www.w3.org/2000/svg" viewBox="0 0 145.34 38.74"><g data-name="Layer 2"><path d="M9.46 38.74A8.39 8.39 0 0 1 4 37a9.57 9.57 0 0 1-3-4.39A16.79 16.79 0 0 1 0 27a26.41 26.41 0 0 1 1.15-7.63 34.86 34.86 0 0 1 3.15-7.3 32.8 32.8 0 0 1 4.53-6.19 22.17 22.17 0 0 1 5.35-4.27A11.38 11.38 0 0 1 19.73.05a5.14 5.14 0 0 1 3.19.95 3.78 3.78 0 0 1 1.22 3.2 12.07 12.07 0 0 1-.48 3.14 17.94 17.94 0 0 1-1.29 3.36 11.86 11.86 0 0 1-1.8 2.66 2.77 2.77 0 0 1-2 1.06 1.6 1.6 0 0 1-.8-.24 1.88 1.88 0 0 1-.69-.86c.48-.55 1-1.23 1.61-2s1.16-1.68 1.7-2.6A17.92 17.92 0 0 0 21.72 6a6.57 6.57 0 0 0 .5-2.33 2.2 2.2 0 0 0-.55-1.56 2.35 2.35 0 0 0-1.8-.6 7.2 7.2 0 0 0-4.29 1.68 21.65 21.65 0 0 0-4.32 4.49 38.62 38.62 0 0 0-3.77 6.26A40.87 40.87 0 0 0 4.82 21a26.23 26.23 0 0 0-1 6.86 14.84 14.84 0 0 0 .67 4.49 7.44 7.44 0 0 0 2.21 3.43 5.71 5.71 0 0 0 3.91 1.32 10.12 10.12 0 0 0 5.06-1.44 18.49 18.49 0 0 0 4.63-3.79 19.88 19.88 0 0 0 3.36-5.09l.68.48A28.76 28.76 0 0 1 20.5 33a19 19 0 0 1-5 4.18 12.1 12.1 0 0 1-6.04 1.56Zm18.38-2.07A5.32 5.32 0 0 1 22 31.1a11.12 11.12 0 0 1 1.08-4.56A18.92 18.92 0 0 1 25.94 22a16.5 16.5 0 0 1 4-3.43 8.17 8.17 0 0 1 4.28-1.32 3.8 3.8 0 0 1 2 .58 2.55 2.55 0 0 1 .93 2.35 6 6 0 0 1-1.08 3.43 11.28 11.28 0 0 1-2.83 2.86 17.19 17.19 0 0 1-3.84 2 16.23 16.23 0 0 1-4.15 1c-.07.32-.11.62-.15.91a7.88 7.88 0 0 0 0 .82 6.42 6.42 0 0 0 .16 1.44 4 4 0 0 0 .6 1.32 2.82 2.82 0 0 0 1.18.93 4.4 4.4 0 0 0 1.85.34 8 8 0 0 0 4.08-1.18 15.57 15.57 0 0 0 3.7-3.05 20.34 20.34 0 0 0 2.93-4.23l.58.44a18 18 0 0 1-3.29 5 15.79 15.79 0 0 1-4.32 3.29 10.43 10.43 0 0 1-4.73 1.17Zm-2.35-8.06a21.89 21.89 0 0 0 6.07-3.27 11.54 11.54 0 0 0 2.5-2.54 5 5 0 0 0 1-2.93 1.43 1.43 0 0 0-.19-.81c-.13-.2-.4-.29-.82-.29a4.34 4.34 0 0 0-2.45.89A12.42 12.42 0 0 0 29.09 22a20.55 20.55 0 0 0-2.16 3.17 15.89 15.89 0 0 0-1.44 3.44ZM42.62 36a3.2 3.2 0 0 1-2.95-1.42 6.52 6.52 0 0 1-.89-3.52 21.22 21.22 0 0 1 .87-5.48 58.05 58.05 0 0 1 2.28-6.67q1.41-3.5 3.09-6.84c1.12-2.22 2.24-4.25 3.36-6.07a34.45 34.45 0 0 1 3.1-4.37C52.42.54 53.17 0 53.71 0a1 1 0 0 1 .87.6A5.28 5.28 0 0 1 55.1 2a6.75 6.75 0 0 1 .2 1.51 12.17 12.17 0 0 1-.65 3.39 38.1 38.1 0 0 1-1.83 4.65A48.83 48.83 0 0 1 50 16.78a52.81 52.81 0 0 1-3.5 5 26.74 26.74 0 0 1-4 4.13c-.19.86-.35 1.7-.46 2.52a17.52 17.52 0 0 0-.17 2.33 5.72 5.72 0 0 0 .53 2.78 1.71 1.71 0 0 0 1.59.91 3.81 3.81 0 0 0 2.56-1.15 14.25 14.25 0 0 0 2.4-2.9 25.44 25.44 0 0 0 2-3.63l.72.39a24.22 24.22 0 0 1-4.18 6.45A6.62 6.62 0 0 1 42.62 36ZM43 24.29a31.33 31.33 0 0 0 3.26-3.87 53.42 53.42 0 0 0 3-4.53q1.37-2.36 2.42-4.56a33.51 33.51 0 0 0 1.63-4 9.27 9.27 0 0 0 .58-2.71 1.11 1.11 0 0 0-.2-.62.33.33 0 0 0-.22-.14c-.25 0-.69.41-1.32 1.22A38.22 38.22 0 0 0 50 8.4c-.83 1.38-1.68 2.94-2.55 4.7s-1.71 3.6-2.45 5.52a58.28 58.28 0 0 0-2 5.67Zm12.15 12.38a5.3 5.3 0 0 1-5.85-5.57 11.12 11.12 0 0 1 1.08-4.56A18.92 18.92 0 0 1 53.26 22a16.5 16.5 0 0 1 4-3.43 8.14 8.14 0 0 1 4.27-1.32 3.8 3.8 0 0 1 2 .58 2.55 2.55 0 0 1 .93 2.35 6 6 0 0 1-1.08 3.43 11.28 11.28 0 0 1-2.83 2.86 17.19 17.19 0 0 1-3.84 2 16.23 16.23 0 0 1-4.15 1 8.08 8.08 0 0 0-.14.91 6.38 6.38 0 0 0 .12 2.26 3.59 3.59 0 0 0 .6 1.32 2.73 2.73 0 0 0 1.17.93 4.4 4.4 0 0 0 1.85.34 8 8 0 0 0 4.08-1.18A15.57 15.57 0 0 0 64 31a20 20 0 0 0 2.93-4.23l.58.44a18 18 0 0 1-3.29 5 15.79 15.79 0 0 1-4.32 3.29 10.43 10.43 0 0 1-4.75 1.17Zm-2.35-8.06a21.89 21.89 0 0 0 6.07-3.27 11.54 11.54 0 0 0 2.5-2.54 5 5 0 0 0 1-2.93 1.43 1.43 0 0 0-.19-.81c-.13-.2-.4-.29-.82-.29a4.32 4.32 0 0 0-2.44.89A12.2 12.2 0 0 0 56.4 22a20.55 20.55 0 0 0-2.16 3.17 15.89 15.89 0 0 0-1.44 3.44ZM71 37a5.85 5.85 0 0 1-3.58-1 5.37 5.37 0 0 1-1.87-2.42 8.17 8.17 0 0 1-.55-2.86 5.16 5.16 0 0 1 .38-2.21 3.06 3.06 0 0 1 .94-1.15 4.89 4.89 0 0 1 1.06-.58 1.93 1.93 0 0 0 .69-.38 33 33 0 0 0 2.64-3.31 24.92 24.92 0 0 0 2.11-3.65v-.58a4.09 4.09 0 0 1 .6-2.52 1.69 1.69 0 0 1 1.28-.74.77.77 0 0 1 .57.19.59.59 0 0 1 .19.43 3.06 3.06 0 0 1-.14.77 5.08 5.08 0 0 0-.14 1.35 10.66 10.66 0 0 0 .62 3.43c.42 1.23.83 2.53 1.25 3.89a14.6 14.6 0 0 1 .62 4.24 9.92 9.92 0 0 1-.07 1.23 7.8 7.8 0 0 1-.22 1.13 6.8 6.8 0 0 0 3.17-1.52 12.44 12.44 0 0 0 2.88-3.91l.43.48a8.14 8.14 0 0 1-2.73 4 8.83 8.83 0 0 1-4 1.7 5.6 5.6 0 0 1-2.42 3A7.26 7.26 0 0 1 71 37Zm.1-1.68a4.36 4.36 0 0 0 1.53-.39 2.91 2.91 0 0 0 1.49-2 8.43 8.43 0 0 1-3.58-1.59A9.75 9.75 0 0 1 68.21 29c-.71 0-1.06.59-1.06 1.68a5.39 5.39 0 0 0 1 3.19 3.35 3.35 0 0 0 2.94 1.46Zm3.26-3.12c.06-.32.11-.66.14-1a11.49 11.49 0 0 0 .04-1.2 18.58 18.58 0 0 0-.54-4.54c-.37-1.48-.68-2.88-.94-4.2a43.82 43.82 0 0 1-2.32 3.48 24.56 24.56 0 0 1-2.34 2.76 8.84 8.84 0 0 0 2.23 2.88 8 8 0 0 0 3.72 1.83Zm12.24 4.56a4.09 4.09 0 0 1-3.17-1.2A5.12 5.12 0 0 1 82.32 32a21.55 21.55 0 0 1 .79-5.21 65 65 0 0 1 2-6.36c-.32-.07-.62-.12-.91-.17a4.3 4.3 0 0 1-.82-.22v-.84l.92.1 1.2.09q1-2.59 2.16-5a47.25 47.25 0 0 1 2.28-4.32 18.14 18.14 0 0 1 2.16-3 2.76 2.76 0 0 1 1.74-1.17 1 1 0 0 1 .69.27 1 1 0 0 1 .32.79 6.77 6.77 0 0 1-1 2.66c-.67 1.24-1.51 2.7-2.5 4.4s-2 3.53-2.88 5.52h1.78c1.05 0 2.17 0 3.33-.05s2.35-.11 3.53-.24v.86c-1.76.19-3.33.34-4.73.43s-2.63.15-3.72.15h-.72a42.75 42.75 0 0 0-1.87 5.23 19.09 19.09 0 0 0-.77 5.23 5.23 5.23 0 0 0 .63 3A2.31 2.31 0 0 0 88 35a7.21 7.21 0 0 0 4.9-2.21 19.4 19.4 0 0 0 4.22-6l.63.48a20.28 20.28 0 0 1-2.91 4.85 14.45 14.45 0 0 1-3.84 3.4 8.52 8.52 0 0 1-4.41 1.25Zm13.06-1a3.3 3.3 0 0 1-2.79-1.18 4.48 4.48 0 0 1-.87-2.8 12.4 12.4 0 0 1 .36-2.78 33.14 33.14 0 0 1 1.08-3.53A26.23 26.23 0 0 1 99 22a12.2 12.2 0 0 1 1.89-2.66 2.85 2.85 0 0 1 2-1 1.16 1.16 0 0 1 .75.26 1 1 0 0 1 .31.79 4.57 4.57 0 0 1-.75 1.88c-.49.86-1.08 1.85-1.75 3a25.76 25.76 0 0 0-1.75 3.53 9.36 9.36 0 0 0-.74 3.53 3.35 3.35 0 0 0 .57 2.3 2.41 2.41 0 0 0 1.78.58 5.47 5.47 0 0 0 3.48-1.63 19.78 19.78 0 0 0 3.91-5.72l.43.48a13.77 13.77 0 0 1-4 6.34 8.37 8.37 0 0 1-5.48 2.13Zm5.76-22a2.44 2.44 0 0 1-1.37-.38 1.33 1.33 0 0 1-.6-1.2 2.1 2.1 0 0 1 1.17-1.75 4.33 4.33 0 0 1 2.33-.75 1.83 1.83 0 0 1 1.15.34 1.37 1.37 0 0 1 .44 1.15 2.34 2.34 0 0 1-1 1.75 3.22 3.22 0 0 1-2.13.9Zm4.65 23a3.51 3.51 0 0 1-2.52-1 3.94 3.94 0 0 1-1-3 10.45 10.45 0 0 1 .77-3.72 18.35 18.35 0 0 1 2.11-3.93 22.06 22.06 0 0 1 3-3.56 15.15 15.15 0 0 1 3.6-2.56 8.27 8.27 0 0 1 3.77-1 4.89 4.89 0 0 1 3.12 1 3.17 3.17 0 0 1 1.24 2.62 1.82 1.82 0 0 1-.64 1.63 3.05 3.05 0 0 1-1.71.43c.07-.26.12-.54.17-.84a5.09 5.09 0 0 0 .07-.84 3.29 3.29 0 0 0-.53-1.9 2 2 0 0 0-1.82-.79 4.87 4.87 0 0 0-2.74.94 12.59 12.59 0 0 0-2.68 2.49 21.09 21.09 0 0 0-2.28 3.48 20 20 0 0 0-1.58 3.6 10.23 10.23 0 0 0-.58 3.17c0 1.24.43 1.87 1.3 1.87a4 4 0 0 0 2.4-1 19.94 19.94 0 0 0 2.66-2.64c.91-1.08 1.78-2.19 2.62-3.34s1.56-2.21 2.21-3.17c.12-.19.2-.29.24-.29a6.61 6.61 0 0 1 .74.2 2.64 2.64 0 0 1 .79.38.75.75 0 0 1 .34.62 2.7 2.7 0 0 1-.43 1.18c-.29.5-.61 1.06-1 1.7a19.55 19.55 0 0 0-1 1.95 4.57 4.57 0 0 0-.44 1.85 2.83 2.83 0 0 0 .39 1.41 1.3 1.3 0 0 0 1.25.7c.86 0 2-.63 3.4-1.9a22.72 22.72 0 0 0 4.28-5.69l.48.48a17.16 17.16 0 0 1-2.6 4.56 13.23 13.23 0 0 1-3.38 3.08 6.79 6.79 0 0 1-3.53 1.1 3.11 3.11 0 0 1-2.56-1.09 3.61 3.61 0 0 1-.84-2.3 5.25 5.25 0 0 1 0-.65c0-.24.07-.49.1-.74a23.42 23.42 0 0 1-3.77 4.17 5.47 5.47 0 0 1-3.43 1.4Zm22.6-.76a3.19 3.19 0 0 1-2.95-1.42 6.43 6.43 0 0 1-.89-3.52 21.59 21.59 0 0 1 .86-5.48 62.18 62.18 0 0 1 2.31-6.67q1.42-3.5 3.1-6.84c1.12-2.22 2.24-4.25 3.36-6.07a34.5 34.5 0 0 1 3.09-4.37C142.47.54 143.21 0 143.76 0a1 1 0 0 1 .86.6 5.62 5.62 0 0 1 .53 1.4 6.7 6.7 0 0 1 .19 1.51 12.17 12.17 0 0 1-.65 3.39 39.59 39.59 0 0 1-1.82 4.65 49 49 0 0 1-2.79 5.19 52.81 52.81 0 0 1-3.5 5 26.29 26.29 0 0 1-4 4.13q-.28 1.29-.45 2.52a16 16 0 0 0-.17 2.33 5.61 5.61 0 0 0 .53 2.78 1.71 1.71 0 0 0 1.58.91 3.83 3.83 0 0 0 2.57-1.15 14.25 14.25 0 0 0 2.4-2.9 25.37 25.37 0 0 0 1.96-3.58l.72.39a24.46 24.46 0 0 1-4.17 6.45 6.64 6.64 0 0 1-4.88 2.38Zm.33-11.71a32.27 32.27 0 0 0 3.27-3.87 51 51 0 0 0 2.95-4.53q1.36-2.36 2.43-4.56a35.3 35.3 0 0 0 1.63-4 9.53 9.53 0 0 0 .57-2.71 1.11 1.11 0 0 0-.12-.63c-.08-.09-.15-.14-.21-.14-.26 0-.7.41-1.32 1.22A35.8 35.8 0 0 0 140 8.4c-.83 1.38-1.68 2.94-2.54 4.7s-1.69 3.6-2.47 5.52a58.41 58.41 0 0 0-1.99 5.67Z" data-name="Layer 1"></path></g></svg> 