<?xml version="1.0" encoding="UTF-8"?> <svg xmlns="http://www.w3.org/2000/svg" viewBox="0 0 141.65 38.11"><g data-name="Layer 2"><path d="M.1 24.67c0-.41-.06-.79-.08-1.13s0-.64 0-.93a19.18 19.18 0 0 1 .43-3.84q1.59-8 6-12.67A16.21 16.21 0 0 1 16.61 1c.45 0 .87-.07 1.27-.12A10.74 10.74 0 0 1 19.2.82c2 0 3.4.48 4.25 1.46S24.88 5 25.2 7.54a11.43 11.43 0 0 1 .1 1.24 8.11 8.11 0 0 1-.15 1.64c-.09.48-.24 1.07-.43 1.77a12.21 12.21 0 0 1-2 4 2 2 0 0 1-1.63.82 2 2 0 0 1-1.58-.82 4 4 0 0 1-.92-2.64A12.67 12.67 0 0 1 20.5 8l.5-.8a1.69 1.69 0 0 0 .24-.91V5.9q0-.14-.09-.33A2.43 2.43 0 0 0 20.06 4a4.47 4.47 0 0 0-2.49-.6 11.59 11.59 0 0 0-3.22.55 7.56 7.56 0 0 0-3.5 2.43A18.79 18.79 0 0 0 7.78 12l-1.06 3.46a32.41 32.41 0 0 0-.77 4 28.13 28.13 0 0 0-.24 3.52c0 3.56.83 6.24 2.5 8.07a8.89 8.89 0 0 0 6.91 2.73 11 11 0 0 0 5.09-1.15 15.82 15.82 0 0 0 1.94-1.2 7.85 7.85 0 0 0 1.23-1.05l1.39-1.59c.67-.13 1.05.26 1.15 1.15a2.28 2.28 0 0 1-.7 1.54A11.47 11.47 0 0 1 23.47 33l-2.06 1.53-.24.15a14 14 0 0 1-3.77 1.42 20.16 20.16 0 0 1-4.63.52 12.16 12.16 0 0 1-7.68-2.49 13.13 13.13 0 0 1-4.51-7c-.13-.51-.23-.94-.29-1.27s-.13-.71-.19-1.19Zm27.6 1.49.3-2.35q.52-3.46 1.13-6.34c.4-1.92.76-3.45 1.08-4.61A39.16 39.16 0 0 1 32.33 7a14.29 14.29 0 0 1 2.18-3.31 13.83 13.83 0 0 1 2.74-2.39A9.22 9.22 0 0 1 40.18.1 5.11 5.11 0 0 1 41 0c1.47 0 2.29.64 2.45 1.92a6.38 6.38 0 0 1 0 .91 9.07 9.07 0 0 1-.24 2c-.16.72-.46 1.8-.89 3.24A27.07 27.07 0 0 1 40 13.25 57.91 57.91 0 0 1 35.57 20c-.8 1.05-1.23 1.61-1.3 1.68-.25.32-.64.75-1.15 1.29l-.43.48-.58.63-.57 2.78-.1.91-.29 2.07q-.28 1.82-.33 2.76c0 .62-.05 1.41-.05 2.37.29-.73.54-1.34.77-1.82.06-.13.36-.72.91-1.78.7-1.37 1.34-2.56 1.92-3.55s1-1.74 1.39-2.25a22.27 22.27 0 0 1 2.26-3 3.85 3.85 0 0 1 1.63-1.06 4.89 4.89 0 0 1 1.44-.26c1.09 0 1.63.92 1.63 2.78a16.85 16.85 0 0 0 .34 2.74l.19 1.23.62 2.64c.58 1.67 1.23 2.5 2 2.5s1.68-.59 3.12-1.78l.67-.67c1.12-1.25 1.86-1.87 2.21-1.87a5.44 5.44 0 0 1 .77.19 4.5 4.5 0 0 1-1.13 3 17.86 17.86 0 0 1-4.1 3.14 6.35 6.35 0 0 1-3.17 1 3.91 3.91 0 0 1-3.07-1.61 15.13 15.13 0 0 1-2.45-5.06L38 27.22l-.15-.48a27 27 0 0 0-3.1 4.26l-1.25 2.26-.72 1.49C32 36.86 31 37.92 30 37.92a3.24 3.24 0 0 1-1.56-.46 2.14 2.14 0 0 1-1.1-1.27 8.47 8.47 0 0 1-.27-2.49l.05-2.31.05-.43v-1.49a4.08 4.08 0 0 0-.72.72l-.77.87c-.16.25-.34.33-.53.24-.67-.16-.93-.61-.77-1.35a3.24 3.24 0 0 1 .63-1.1l.62-.63 1.1-1 .2-.24Zm11.18-14.35 1.92-4.23a9.11 9.11 0 0 0 1-3.26 1.53 1.53 0 0 0-.31-1 .94.94 0 0 0-1.42-.1 10.49 10.49 0 0 0-1.73 2.31c-1.5 2.85-2.4 4.57-2.69 5.18s-.84 2.1-1.68 4.47a20.14 20.14 0 0 0-1.39 5.56A26.92 26.92 0 0 0 35.9 17a27.43 27.43 0 0 0 2.69-4.59Zm27.7 18.09-1.16 1.35a27 27 0 0 1-3 3.12A11.92 11.92 0 0 1 56 36.91a4.54 4.54 0 0 1-3.08-1A2.5 2.5 0 0 1 52 33.6a11.92 11.92 0 0 1 .53-2l.53-1.44-1 .87a.74.74 0 0 1-.72.19.64.64 0 0 1-.53-.53 1.38 1.38 0 0 1 0-1 3.63 3.63 0 0 1 .86-1.15L53.28 27l.72-.6 2.21-2.06.72-.68c.77-.67 1.61-1.34 2.54-2s1.79-1.25 2.6-1.73a27.37 27.37 0 0 1 4.29-2.09 9.45 9.45 0 0 1 3.1-.65 2.39 2.39 0 0 1 2.16 1 .64.64 0 0 1 .09.48.48.48 0 0 1-.24.39c-.22.13-.47.25-.74.38a5.19 5.19 0 0 1-1.15.34 11.16 11.16 0 0 0-2.35.89 29.48 29.48 0 0 0-3.87 2.23q-1.48 1-2.52 1.89a12.74 12.74 0 0 0-1.65 1.56 12.31 12.31 0 0 0-2.74 4.23 1.72 1.72 0 0 0-.1.67 1.3 1.3 0 0 0 1.3 1.44 3.88 3.88 0 0 0 1.63-.38 14.73 14.73 0 0 0 2.31-1.54c.35-.32.59-.53.71-.62.45-.42 1-.92 1.49-1.49l1.06-1.25c1.85-2.4 3-3.87 3.55-4.42a2.65 2.65 0 0 1 1.83-1 4.93 4.93 0 0 0 .57 0 1.79 1.79 0 0 1 1.73 2 2.37 2.37 0 0 1 0 .53 10.46 10.46 0 0 1-1 3.07L71 28.94a18.07 18.07 0 0 0-.29 2.4 3 3 0 0 0 .29 1.35c.2.41.56.53 1.08.33a11.18 11.18 0 0 0 1-.62 16.64 16.64 0 0 0 1.61-1.4l.57-.53a16.88 16.88 0 0 1 1.44-1.56.94.94 0 0 1 .82-.22.83.83 0 0 1 .58.34.85.85 0 0 1 .09.67 4.65 4.65 0 0 1-.81 1.49l-1.59 1.68a16.23 16.23 0 0 1-3.46 2.5 4.84 4.84 0 0 1-1.12.48 4.57 4.57 0 0 1-1.08.14A3 3 0 0 1 67 33.74a6.16 6.16 0 0 1-.15-.88v-1.95l.09-1.29Zm16.79-8.06-.37-.29c-.55-.61-.82-1-.82-1.29s.45-.79 1.35-1.4l1.72-1.1a3.45 3.45 0 0 1 1.35-.29 3.66 3.66 0 0 1 2.78 1.32A6.92 6.92 0 0 1 91 22.56a10.92 10.92 0 0 1 .09 1.2 14.19 14.19 0 0 1-.25 2.24c-.15.85-.38 1.9-.7 3.14l-.19.58-.95 3.11-.1.34-.29 1.2 1.4-.43a10.51 10.51 0 0 0 4.27-2.84l1.87-2c.29-.29.62-.13 1 .48a2 2 0 0 1 .33.81c0 .48-.92 1.57-2.78 3.27a16.9 16.9 0 0 1-3.6 2.3 21.4 21.4 0 0 1-2.74 1.18 6.78 6.78 0 0 1-2.11.36q-2 0-2-1.44a4 4 0 0 1 .14-1l.43-1.3.82-2.16.19-.53.48-1.2a11.65 11.65 0 0 0 .72-3.5 2.86 2.86 0 0 0-.48-1.75 2.41 2.41 0 0 0-1.3-.89l-1 .91L82.94 26l-1.73 1.63c-.28.29-.62.65-1 1.1a21.39 21.39 0 0 1-2 2.19 1.18 1.18 0 0 1-1 .31c-.58-.13-.8-.42-.67-.87a3 3 0 0 1 .46-1.22l2.35-2.31a14 14 0 0 0 1.3-1.44c.64-.77 1.28-1.61 1.92-2.54ZM95.9 31a3.48 3.48 0 0 1 .1-1 4.48 4.48 0 0 1 .46-1l2-2 2.26-2.49L102 23l3.07-3.55a13.28 13.28 0 0 1 1.42-1.45 3.46 3.46 0 0 1 1-.62 5.73 5.73 0 0 1 2.16-.53c.77 0 1.19.23 1.27.7a6.81 6.81 0 0 1 .12 1.1V20a8.16 8.16 0 0 1-.09 1l-.39 3.46-.05.24-.09.67-.24.91.67-.91 1-1.29.91-1.25.87-1.06c.38-.48.72-.89 1-1.25s.6-.68.92-1l.28-.29 1.78-1.73a7.68 7.68 0 0 1 1.78-1.39 3 3 0 0 1 1.34-.43 1 1 0 0 1 1.06.91v1.1a3.21 3.21 0 0 1 0 .67l-.63 3.7q-.42 2.07-1.44 5.38l-.48 1.34a30.35 30.35 0 0 1 2.93-3.31c.32-.32.59-.57.79-.75l1.23-1q2.64-1.87 4.17-1.87 2.79 0 4.42 5.66l.34 1.35.33 1.77.24 1.2.29 1.06a.72.72 0 0 0 .72.43 3.1 3.1 0 0 0 1.63-.72l1.32-1.05a10.2 10.2 0 0 0 1-1 17.53 17.53 0 0 1 1.4-1.37 1.32 1.32 0 0 1 .86-.36 3.75 3.75 0 0 1 .82.14 5.18 5.18 0 0 1-1 2.45 14.86 14.86 0 0 1-2.88 2.59 7.71 7.71 0 0 1-4.27 2q-2 0-3.5-2.78l-.34-.72-.74-1.64c-.92-1.92-2.11-2.88-3.55-2.88a4.3 4.3 0 0 0-2.83 1.4A11.38 11.38 0 0 0 121.2 31a29 29 0 0 0-2.11 3.17l-.53 1-1.15 2.16-.1.14a1.78 1.78 0 0 1-1.54.72 1.26 1.26 0 0 1-.91-.33.93.93 0 0 1-.29-.77l.48-2.93a2.55 2.55 0 0 0 0-.53c.13-1.21.24-2.27.34-3.17s.15-1.52.17-1.89 0-.79 0-1.27a10.11 10.11 0 0 0-.14-1.61q-.15-.84-.39-1.8L113 26.11l-.72.87-1.28 1.63c-.44.54-1 1.21-1.58 2s-1.33 1.84-2.16 3.12l-1.1 1.73-.58.87h-1.15c-1.28 0-1.92-.41-1.92-1.24a8 8 0 0 1 .62-2.26l.24-.62c.48-1.44.83-2.6 1-3.48a10.25 10.25 0 0 0 .32-2.33 7.9 7.9 0 0 0-.44-2.5l-.72.77-.52.53-2.26 2.3-.62.63-1.56 1.56A11.85 11.85 0 0 0 97.39 31c-.06.09-.21.14-.43.14A9.21 9.21 0 0 1 95.9 31Z" data-name="Layer 1"></path></g></svg> 