<?xml version="1.0" encoding="UTF-8"?> <svg xmlns="http://www.w3.org/2000/svg" viewBox="0 0 512.041 512.041"><path d="M511.943 225.486V116.032c0-.052-.007-.102-.008-.154a54.91 54.91 0 0 0 .064-2.368c0-31.918-27.763-61.171-78.174-82.37C386.166 11.098 323.017.06 256.013.06c-67.017 0-130.174 11.038-177.837 31.08C27.765 52.338 0 81.592 0 113.51v113.031c0 31.92 27.764 61.178 78.177 82.384 45.289 19.051 104.563 29.962 167.838 31.005v38.196c-8.34-4.826-16.312-5.853-22.283-5.615-10.757.421-21.308 5.098-29.707 13.168-16.772 16.112-23.061 45.247-1.68 67.503l51.479 53.577c3.272 3.369 7.603 5.223 12.2 5.223h.043c4.601-.012 8.924-1.879 12.173-5.259l.003-.002 51.442-53.54c21.354-22.229 15.048-51.349-1.726-67.463-8.397-8.067-18.941-12.746-29.688-13.176-5.96-.238-13.925.778-22.257 5.59v-38.203c63.263-1.042 122.528-11.954 167.812-31.005 48.364-20.346 75.865-48.105 78.019-78.513.21-1.576.264-3.35.098-4.925zM85.931 49.576C131.195 30.542 191.6 20.059 256.015 20.059c64.402 0 124.797 10.482 170.059 29.517C467.971 67.195 492 90.498 492 113.51c0 15.331-10.676 30.79-30.181 44.615-47.745-28.274-123.936-45.035-205.804-45.035-81.885 0-158.088 16.761-205.833 45.035C30.676 144.299 20 128.84 20 113.51c0-23.012 24.03-46.316 65.931-63.934zm170.084 270.443c-11.139 0-22.154-.321-32.996-.938v-93.002a599.274 599.274 0 0 0 65.963.001v93.002a580.052 580.052 0 0 1-32.967.937zm42.712-114.604c-.354.009-.703.036-1.047.081a576.476 576.476 0 0 1-41.666 1.493c-14.138 0-28.083-.506-41.717-1.496a9.87 9.87 0 0 0-.963-.075c-48.106-3.578-92.304-13.195-127.402-27.959a226.9 226.9 0 0 1-15.966-7.438c45.072-23.291 112.938-36.931 186.049-36.931 73.095 0 140.951 13.64 186.02 36.932a226.603 226.603 0 0 1-15.964 7.437c-35.084 14.76-79.262 24.375-127.344 27.956zM20 226.541v-68.022c6.543 6.933 14.643 13.536 24.215 19.729.048.033.097.064.145.096 9.77 6.307 21.066 12.187 33.817 17.551 34.849 14.659 77.981 24.496 124.842 28.731v92.962c-44.102-4.123-84.513-13.395-117.087-27.098C44.031 272.864 20 249.555 20 226.541zM304.104 400.14c9.718 9.336 14.226 25.581 1.158 39.184l-49.248 51.256-49.247-51.255c-13.097-13.633-8.604-29.889 1.113-39.225 4.464-4.288 10.66-7.59 17.41-7.59 5.639 0 11.665 2.305 17.389 8.263l6.122 6.377a10.001 10.001 0 0 0 14.428-.001l6.118-6.374c12.548-13.058 26.563-8.504 34.757-.635zm121.967-109.651c-32.576 13.705-72.989 22.978-117.09 27.1v-92.961c46.86-4.234 89.995-14.072 124.846-28.733 25.287-10.639 44.872-23.304 58.116-37.313v69.702c-1.177 22.443-25.03 45.024-65.872 62.205z"></path></svg> 