<?xml version="1.0" encoding="UTF-8"?> <svg xmlns="http://www.w3.org/2000/svg" viewBox="0 0 512 512"><path d="M483.754 1.474a6.92 6.92 0 0 0-9.712 1.173c-41.736 53.199-107.966 88.578-181.896 97.279-4.067-16.194-18.706-28.238-36.145-28.238-17.438 0-32.078 12.044-36.145 28.239-73.927-8.7-140.162-44.079-181.896-97.279a6.92 6.92 0 0 0-9.714-1.173 6.918 6.918 0 0 0-1.173 9.714c44.146 56.273 114.08 93.624 191.964 102.589 2.068 16.051 14.352 28.924 30.116 31.865-.024.235-.071.464-.071.706v23.598L129.58 250.754a6.921 6.921 0 0 0-3.043 5.732v165.73a6.913 6.913 0 0 0 3.043 5.73l122.545 82.865a6.908 6.908 0 0 0 7.752 0l122.543-82.865a6.908 6.908 0 0 0 3.045-5.73v-165.73a6.918 6.918 0 0 0-3.045-5.732l-119.5-80.808v-23.598c0-.242-.047-.47-.071-.705 15.766-2.941 28.048-15.814 30.116-31.865 77.884-8.968 147.821-46.316 191.96-102.589a6.919 6.919 0 0 0-1.171-9.715zM256.002 439.635l-63.284-42.793V281.864l63.284-42.797 63.284 42.797v114.978zm-6.919-212.594-64.072 43.329-37.03-15.354 101.102-68.366zm-70.203 55.77v113.085l-38.505 15.962V266.846zm6.13 125.524 64.073 43.324v40.392l-101.1-68.367zm77.911 43.324 64.072-43.324 37.029 15.35-101.1 68.367v-40.393zm70.202-55.763V282.81l38.505-15.965v145.013zm-6.131-125.524-64.072-43.331V186.65l101.103 68.367zm-70.99-137.909c-12.941 0-23.468-10.527-23.468-23.469s10.527-23.469 23.468-23.469 23.469 10.527 23.469 23.469-10.528 23.469-23.469 23.469z"></path></svg> 