<?xml version="1.0" encoding="UTF-8"?> <svg xmlns="http://www.w3.org/2000/svg" viewBox="0 0 199.21 79.44"><g data-name="Layer 2"><path d="M47.52 58.54a.44.44 0 0 1 .55.07.89.89 0 0 1 .08 1.17 108 108 0 0 1-16.9 11.89 68.76 68.76 0 0 1-15 6.82q-6 1.71-10.08.35a8.23 8.23 0 0 1-4.27-3.16 10.48 10.48 0 0 1-1.84-5.21 17.81 17.81 0 0 1 1-7.49 53.74 53.74 0 0 1 3.77-8.14 150 150 0 0 1 9.8-14.7q5.74-7.76 11.62-14.25L28 24l.12-.14a9.71 9.71 0 0 1-3.06-.1 3.67 3.67 0 0 1-2.17-1.5 4.37 4.37 0 0 1-.79-1.69 6.44 6.44 0 0 1-.17-1.76 6.71 6.71 0 0 1 .45-1.9c.26-.71.52-1.31.76-1.81a16.57 16.57 0 0 1 1.08-1.82c.48-.73.83-1.27 1.08-1.61s.6-.83 1.09-1.45l.21-.28A32.37 32.37 0 0 1 38.07.07a.46.46 0 0 1 .59.08.86.86 0 0 1 .21.64.76.76 0 0 1-.28.59A56.21 56.21 0 0 0 32 7.2a33.73 33.73 0 0 0-5 6.53 22 22 0 0 0-1.82 3.75l-.11.32a1.13 1.13 0 0 0-.09.34v.27a.42.42 0 0 0 .07.28.58.58 0 0 0 .25.17 1.2 1.2 0 0 0 .46 0c.11 0 .32-.08.62-.17a3.45 3.45 0 0 1 .47-.14 15.62 15.62 0 0 1 1.69-.42 12.94 12.94 0 0 1 1.53-.13 4.11 4.11 0 0 1 1.66.22 5 5 0 0 1 1.47.89 5 5 0 0 1 1.31 1.62 4.18 4.18 0 0 1 .49 1.62 4.88 4.88 0 0 1-.31 1.73 8 8 0 0 1-.8 1.66 17.07 17.07 0 0 1-1.2 1.64c-.5.6-.94 1.11-1.34 1.53l-1.37 1.41c-.52.53-.9.94-1.15 1.22q-5.46 6.2-10.15 12.17Q12.76 51.21 9.1 57l-.49.78-1.52 2.39c-.36.59-.83 1.42-1.4 2.49a24.23 24.23 0 0 0-1.29 2.76 17.23 17.23 0 0 0-.72 2.64 9.43 9.43 0 0 0-.18 2.76 5.23 5.23 0 0 0 .93 2.68 4.72 4.72 0 0 0 1.91 1.57A9 9 0 0 0 9 75.7a15.8 15.8 0 0 0 3 0c1-.11 2-.29 3.1-.52s2-.47 2.8-.7 1.53-.49 2.27-.75a69 69 0 0 0 7.45-3.28q4-2 6.35-3.45t7.16-4.44q4.77-3.03 6.39-4.02ZM89.78 39a.26.26 0 0 1 .37.17.4.4 0 0 1-.05.46 10.71 10.71 0 0 1-1 1.07c-.39.37-.73.67-1 .9l-1.18 1-1.08.86q-1.12.93-3.73 2.9a42.79 42.79 0 0 1-5.18 3.5 6.1 6.1 0 0 1-3.77.93 2.94 2.94 0 0 1-1.6-.8 6.35 6.35 0 0 1-1.1-1.68 5.58 5.58 0 0 1-.09-4.31c.06-.15.16-.43.29-.82s.24-.69.32-.91c-.58.34-1.49.93-2.72 1.75s-2.2 1.43-2.88 1.84q-2.83 1.68-6.33 3.32c-.66.32-1.17.55-1.54.71a9.57 9.57 0 0 1-1.43.44 6.16 6.16 0 0 1-1.67.19 3.89 3.89 0 0 1-2.22-.71 3.48 3.48 0 0 1-1.25-1.91q-.63-2.31 1.31-5.56a15.09 15.09 0 0 1 3.4-4.08 18.43 18.43 0 0 1 5-2.93 10.25 10.25 0 0 1 5.2-.7 5.64 5.64 0 0 1 4.41 3 5 5 0 0 1 .42 1.1 1.61 1.61 0 0 1 1-.94 1.44 1.44 0 0 1 1.28.12 2.68 2.68 0 0 1 1 1 1.09 1.09 0 0 1 .09.21v.16a2 2 0 0 1 .67.75 1.54 1.54 0 0 1 .17.94 11.9 11.9 0 0 1-1.09 3c-.6 1.25-1 2-1 2.23a2.48 2.48 0 0 0-.14.89.72.72 0 0 0 0 .13.5.5 0 0 0 0 .13 2.63 2.63 0 0 1 .14.31 2 2 0 0 0 .2.34l.28.28a2.48 2.48 0 0 0 .63.11 4 4 0 0 0 1.71-.39c.33-.13.67-.28 1-.46s.69-.34 1-.49.61-.36 1-.62l.89-.58c.18-.11.51-.34 1-.66s.77-.53.9-.61l1.83-1.29c.86-.61 1.52-1.07 2-1.38l1.06-.77c.48-.35.87-.63 1.17-.83s.66-.43 1.08-.69a8.43 8.43 0 0 1 1.23-.62Zm-27.47 6.3a54.45 54.45 0 0 0 6-3.33 1.48 1.48 0 0 1 .35-1.78 1.4 1.4 0 0 0-.66-1.14 3.29 3.29 0 0 0-1.32-.66 8 8 0 0 0-4.4.56 15.16 15.16 0 0 0-6.24 4.29 17.62 17.62 0 0 0-2 3.09 6.89 6.89 0 0 0-.45.85v.21c0 .04.37.32.84.42a7 7 0 0 0 3.45-.63c1.64-.61 3.12-1.24 4.43-1.88ZM132.36 14a.78.78 0 0 1 .75.56 1.55 1.55 0 0 1 .06 1.12.88.88 0 0 1-.69.67l-2.1.36c-1.1.2-1.89.33-2.38.41s-1.15.15-2 .22a18.61 18.61 0 0 1-2.32.06c-.22 0-.38-.17-.48-.45a.9.9 0 0 1 0-.74h-5.81Q113.5 33 110.82 51q-1.72 11.56-2.18 16a49.49 49.49 0 0 0-.35 5.37 3.49 3.49 0 0 0 .82 2.58.83.83 0 0 1 .21 1c-.11.41-.31.57-.61.49l-.16-.09a3 3 0 0 1-.88-1 5.27 5.27 0 0 1-.49-1.08c-.09-.29-.19-.72-.32-1.3a35.27 35.27 0 0 1-.77-6.42 103.35 103.35 0 0 1 1.1-17q1.38-10.47 3.35-20c.3-1.43.77-3.59 1.43-6.47q-2.91 4.65-10.76 16.34l-1 1.46-1 1.45c1 2.48.9 5.43-.45 8.86a21.43 21.43 0 0 1-6.19 8.83c-2.43 2-4.16 2.53-5.17 1.5a.89.89 0 0 1-.17-.26 1.59 1.59 0 0 1-.28-.88 3.32 3.32 0 0 1 .16-1.13 12.12 12.12 0 0 1 .46-1.22 13.09 13.09 0 0 1 .66-1.28c.25-.44.49-.83.69-1.15s.42-.65.65-1 .39-.57.45-.68q2.55-4.2 6.91-10.62a3.08 3.08 0 0 0-2-1.9 7.06 7.06 0 0 0-2.3.07c-1 .16-1.63.24-1.85.26a2.58 2.58 0 0 1-2-.73 2.41 2.41 0 0 1-.69-2 2.63 2.63 0 0 1 1-1.92 18.44 18.44 0 0 1 3.6-2.21 20.08 20.08 0 0 0 3.57-2.13l.07-.07h.07c.33-.21.59-.12.8.3a1.12 1.12 0 0 1 .07 1 5.77 5.77 0 0 1-.73 1.07 7 7 0 0 1-1.11 1c-.47.34-.8.57-1 .7s-.61.39-1.22.77-1.25.77-1.59 1c.9-.15 1.59-.25 2.06-.28A5 5 0 0 1 97.93 40a6.46 6.46 0 0 1 .63.86l2.72-4 3-4.43 2.58-3.82q1.57-2.36 2.87-4.32.75-1.11 2.88-4.41l.91-3.44q-6.42.34-11.67 1A185.3 185.3 0 0 0 77.31 22a1.85 1.85 0 0 1-.06 1.19 1 1 0 0 1-.81.68 7.65 7.65 0 0 1-5-.56 1.46 1.46 0 0 1-.72-.93 1.84 1.84 0 0 1 0-1.27 1.09 1.09 0 0 1 .84-.73q9.54-1.74 16.55-2.84t13.9-1.8q6.61-.66 12-1.1c.07-.22.17-.63.31-1.22s.26-1 .35-1.36.2-.69.41-1.42.36-1.24.46-1.53.23-.77.43-1.41.37-1.15.53-1.52.34-.83.55-1.35a14 14 0 0 1 .67-1.45 12.28 12.28 0 0 1 .75-1.28 1.27 1.27 0 0 1 .84-.61.3.3 0 0 1 .4-.09 2.22 2.22 0 0 1 .82.58 1.89 1.89 0 0 1 .43.9 7.73 7.73 0 0 1 .14 1 3.78 3.78 0 0 1-.1 1.2c-.11.47-.19.85-.25 1.13a9.33 9.33 0 0 1-.38 1.14l-.37 1c-.07.15-.18.43-.36.82s-.57 1.29-1.07 2.32c-.08.32-.2.81-.35 1.46l-.36 1.47c5.3-.35 10-.46 14.23-.36ZM97.6 45.09c0-.06 0-.17-.07-.33Q94 50 91.88 53.41c-1.37 2.22-2.32 3.87-2.85 5-.27.58-.48 1.08-.64 1.52v.14a.33.33 0 0 0 0 .1c.44.2 1.21-.12 2.32-1a16.88 16.88 0 0 0 3.54-3.75q4.04-5.76 3.35-10.33Zm64.25-6c.12-.22.27-.22.44 0a.4.4 0 0 1 .09.51c-.51.88-1.29 2.18-2.34 3.92s-1.83 3-2.37 3.91c-.09.17-.3.54-.64 1.1s-.58 1-.73 1.2l-.68 1.08c-.3.48-.56.87-.78 1.16l-.79 1a11.76 11.76 0 0 1-.92 1c-.32.3-.64.59-1 .85a3.46 3.46 0 0 1-1.32.68l-.28.07-.21.07a1.32 1.32 0 0 1-.65 0 2.87 2.87 0 0 1-1.36-.66h-.09l-.1-.05h-.1a4.56 4.56 0 0 1-1.64-3.11.37.37 0 0 0 0-.15.34.34 0 0 1 0-.14 1.44 1.44 0 0 1 0-.72 18.74 18.74 0 0 1 0-2 58.74 58.74 0 0 1 1.32-7c.06-.25.15-.61.27-1.07s.21-.83.28-1.11.15-.66.24-1.13a5.44 5.44 0 0 0 .14-1.1v-1a2.29 2.29 0 0 0-.07-.28l-.14-.17-.21-.26a4 4 0 0 0-1.5-.93 7.94 7.94 0 0 0-1-.29l-.84-.15-1-.1-.92-.1h-1.05l-.51-.07a2.46 2.46 0 0 1-.52-.14 161.81 161.81 0 0 1-11.37 11.46 70.73 70.73 0 0 1-5.44 4.81c-.67.5-1.17.86-1.51 1.1s-.82.53-1.45.9a6.29 6.29 0 0 1-1.81.74 4.82 4.82 0 0 1-1.69.07 4.67 4.67 0 0 1-3-1.67 5.73 5.73 0 0 1-1.38-3.25 9.64 9.64 0 0 1 2.2-6.64 32.84 32.84 0 0 1 5.77-5.74s.26-.2.69-.56.73-.61.91-.74l.94-.68a6.87 6.87 0 0 1 1.09-.67l1-.41a2.75 2.75 0 0 1 1.07-.2 2.56 2.56 0 0 1 .94.24 1.6 1.6 0 0 1 1.57.37 2.41 2.41 0 0 1 .83 1.54 3.15 3.15 0 0 1-.13 1.77 8.12 8.12 0 0 1-2.1 3.25 10.71 10.71 0 0 1-2.42 1.9 8.74 8.74 0 0 1-2.79 1.13 4.19 4.19 0 0 0-.71.16 4.22 4.22 0 0 1-.74.17 5.18 5.18 0 0 1-1.5-.12 1.55 1.55 0 0 1-.56-.24 13.69 13.69 0 0 0-2.76 3.4 4.24 4.24 0 0 0-.49 1.64 2.54 2.54 0 0 0 .35 1.54 2.21 2.21 0 0 0 1.36 1 3.19 3.19 0 0 0 .82.13 3.12 3.12 0 0 0 .72-.05 4.13 4.13 0 0 0 .76-.23l.7-.29.72-.38a23 23 0 0 0 3.68-2.36 104.54 104.54 0 0 0 8.07-7.22q5-4.87 7-6.54a2 2 0 0 1-.75-1 1.28 1.28 0 0 1 .23-1.18c.13-.17.29-.14.49.1a6.24 6.24 0 0 1 .8 1.26 3.75 3.75 0 0 0 .73.12 7.27 7.27 0 0 0 .92 0h.83a16.43 16.43 0 0 1 3.66.33 5.12 5.12 0 0 1 2.31 1.36 4 4 0 0 1 1 2.34 23.67 23.67 0 0 1-.52 5.79c-.06.36-.15.88-.28 1.56s-.23 1.24-.3 1.67-.16.94-.25 1.53-.15 1.14-.2 1.64a13.58 13.58 0 0 0 0 2.21c0 .06 0 .16.07.29a2.47 2.47 0 0 0 .1.35 1.69 1.69 0 0 0 .11.27 2.51 2.51 0 0 0 .31.47l.07.1a.67.67 0 0 0 .19.16v.05l.1.07a.71.71 0 0 0 .21.11.14.14 0 0 1 .09 0 .14.14 0 0 0 .09.05H150.37a.66.66 0 0 0 .23 0h.16a.76.76 0 0 0 .24 0 .76.76 0 0 1 .21 0 .43.43 0 0 0 .16-.07 4.6 4.6 0 0 0 .47-.28 17.49 17.49 0 0 0 2.58-2.67 102.83 102.83 0 0 0 7.43-10.76Zm36.51-.28c.3-.28.54-.23.73.14a.84.84 0 0 1 0 .92q-3.27 4.13-5.15 6-8.79 9-13.95 3.14a9.94 9.94 0 0 1-.78-1c-.24-.36-.48-.76-.71-1.19l-.55-1.1c-.14-.3-.33-.73-.57-1.28s-.42-.95-.53-1.19l-.15-.3-.16-.35c0-.05-.08-.16-.17-.34s-.15-.31-.19-.38a2.82 2.82 0 0 0-.19-.32c-.1-.15-.17-.27-.23-.34a3.06 3.06 0 0 0-.23-.3 3.67 3.67 0 0 0-.28-.28l-.28-.21a2.58 2.58 0 0 0-.32-.18c-.92-.39-2 .15-3.33 1.6a42.86 42.86 0 0 0-3.42 4.4c-1.17 1.71-2.36 3.46-3.55 5.27s-2.29 3.3-3.27 4.51a1.68 1.68 0 0 1-2.37 0 6 6 0 0 1-1.26-2.03 6.58 6.58 0 0 1-.29-2.53 19.6 19.6 0 0 1 .3-2.44c.14-.72.35-1.6.61-2.65s.45-1.83.54-2.37.23-1.28.41-2.26.35-1.86.49-2.66.3-1.54.44-2.25c0-.15.1-.54.22-1.15s.21-1 .28-1.32.17-.65.31-1.14a7.64 7.64 0 0 1 .45-1.26 6 6 0 0 1 .61-1l.1-.14a.21.21 0 0 1 0-.07l.07-.14a.73.73 0 0 1 .86-.14 1.11 1.11 0 0 1 .66.89 7.37 7.37 0 0 1 .14 1.48 10.69 10.69 0 0 1-.07 1.38c-.05.38-.12.89-.22 1.54s-.17 1.11-.2 1.39c-.08.6-.2 1.49-.35 2.69s-.28 2.09-.35 2.68c-.18 1.25-.44 3-.8 5.18l-.07.42c1-1.25 1.74-2.19 2.22-2.83l1-1.3 1.1-1.45 1-1.24c.41-.51.79-1 1.16-1.39s.74-.81 1.12-1.19q2.81-2.8 5.39-2.15a4.44 4.44 0 0 1 2.42 1.49 13.54 13.54 0 0 1 1.79 2.82 18.88 18.88 0 0 1 .87 2.09 18.84 18.84 0 0 0 1.15 2.54 6.31 6.31 0 0 0 1.41 1.75c1.25 1.06 2.92 1.16 5 .28a18.18 18.18 0 0 0 2.45-1.24 20.2 20.2 0 0 0 2.46-1.76c.84-.69 1.53-1.27 2.06-1.76s1.29-1.18 2.23-2.08Z" data-name="Layer 1"></path></g></svg> 