<svg xmlns="http://www.w3.org/2000/svg" xml:space="preserve" viewBox="0 0 682.667 682.667" ><defs><clipPath id="a"><path d="M0 512h512V0H0Z"></path></clipPath></defs><g clip-path="url(#a)" transform="matrix(1.33333 0 0 -1.33333 0 682.667)"><path d="M0 0a29.997 29.997 0 0 0-13.368 24.967v.025c0 17.737 14.38 32.116 32.118 32.116h417.763c17.737 0 32.117-14.379 32.117-32.116v-.025c0-10.033-5.012-19.4-13.367-24.967-40.769-27.185-163.615-109.076-209.806-139.876a32.129 32.129 0 0 0-35.651 0C163.614-109.076 40.769-27.185 0 0Z" style="fill:none;stroke:#000;stroke-width:30;stroke-linecap:round;stroke-linejoin:round;stroke-miterlimit:10;stroke-dasharray:none;stroke-opacity:1" transform="translate(28.369 375.624)"></path><path d="M0 0v-289.199a32.096 32.096 0 0 1 9.415-22.718 32.096 32.096 0 0 1 22.718-9.415h417.732a32.096 32.096 0 0 1 22.718 9.415 32.096 32.096 0 0 1 9.415 22.718V0" style="fill:none;stroke:#000;stroke-width:30;stroke-linecap:round;stroke-linejoin:round;stroke-miterlimit:10;stroke-dasharray:none;stroke-opacity:1" transform="translate(15.001 400.6)"></path></g></svg>