<?xml version="1.0" encoding="UTF-8"?> <svg xmlns="http://www.w3.org/2000/svg" viewBox="0 0 97.73 32.88"><g data-name="Layer 2"><path d="M2.06 32.45V10.66H.82L0 8.35h2.06V.43h8v2.35H4.42v5.57h5.37l.82 2.31H4.42v21.79Zm43-15.94a15.77 15.77 0 0 1-4.8 11.57 15.76 15.76 0 0 1-11.57 4.8 16.1 16.1 0 0 1-11.61-4.7 15.45 15.45 0 0 1-4.85-11.52A16 16 0 0 1 17.09 4.8 16.26 16.26 0 0 1 29 0a15.2 15.2 0 0 1 11.4 4.87 16.22 16.22 0 0 1 4.67 11.64Zm-30.53-.05a13.55 13.55 0 0 0 4.13 9.94 13.61 13.61 0 0 0 10 4.13 13.73 13.73 0 0 0 10-4.06 13.23 13.23 0 0 0 4.15-9.81 13.69 13.69 0 0 0-4.22-10.23 14.13 14.13 0 0 0-10.27-4.08 13 13 0 0 0-9.72 4.2 13.82 13.82 0 0 0-4.06 9.91Zm44.31 16-8.26-6.91v6.91h-2.34V.43H50a12.66 12.66 0 0 1 9.11 3.65 12 12 0 0 1 3.8 9 12.26 12.26 0 0 1-2.35 7.49 14.13 14.13 0 0 1-6.53 4.75l8.54 7.11Zm1.74-19.16A10.07 10.07 0 0 0 57.77 6a11.2 11.2 0 0 0-7.18-3.33v21a11.46 11.46 0 0 0 7.06-3.21 9.65 9.65 0 0 0 2.93-7.16Zm6 19.15V10.66h-1.2l-.87-2.36h2.07V.43h8.2v2.35h-5.85V8.3h5.57l.86 2.36h-6.43V30.1h5.85v2.35Zm9.93-2.35a20.32 20.32 0 0 0 5.49-.48q2.84-1 2.83-4.32A13 13 0 0 0 83 19.44c-1.24-2.3-2.45-4.53-3.63-6.67a14.77 14.77 0 0 1-2-6.29 5.44 5.44 0 0 1 1.9-4.54 7.84 7.84 0 0 1 5-1.51h1.72v2.31a14.46 14.46 0 0 0-4.12.38 3.09 3.09 0 0 0-2.16 3.22 13.87 13.87 0 0 0 1.92 6.14l3.55 6.34a14.9 14.9 0 0 1 2 6.48 6.48 6.48 0 0 1-2.39 5.37 8.92 8.92 0 0 1-5.77 1.78h-2.51Zm15.12 2.35V2.78h-3.79V.43h9.89v2.35H94v29.67Z" data-name="Layer 1"></path></g></svg> 