<?xml version="1.0" encoding="UTF-8"?> <svg xmlns="http://www.w3.org/2000/svg" viewBox="0 0 99.59 48.67"><g data-name="Layer 2"><path d="M34.66 24.19h.09s.08.07.15.19a.4.4 0 0 1-.1.29.14.14 0 0 1-.09 0A21.59 21.59 0 0 1 32.59 26c-.7.37-1.52.75-2.45 1.13l-1.2.43-1.41.51-1.47.48-1.24.36h-.29l-.87 1.83q-5.85 12-12.38 16.08a13 13 0 0 1-2.11 1 17.13 17.13 0 0 1-2.07.68 6.32 6.32 0 0 1-.67.07H4a9 9 0 0 1-.93-.26 3 3 0 0 1-.86-.31 4.63 4.63 0 0 1-.94-.74 4.1 4.1 0 0 1-.74-1A4.79 4.79 0 0 1 0 44a6 6 0 0 1 .22-1.66 10.34 10.34 0 0 1 .64-1.7 14.44 14.44 0 0 1 3.17-4 22.25 22.25 0 0 1 5-3.31c.67-.32 1.35-.62 2-.91s1.45-.57 2.3-.84 1.82-.57 2.93-.89 2.42-.67 4-1.05q.52-.11 1.05-.24l.92-.24.77-.26a1.5 1.5 0 0 1 .12-.34c.08-.19.19-.43.31-.72l.41-.91c.15-.32.28-.63.41-.91a35.1 35.1 0 0 0 1.32-3.29q.64-1.85 1.32-3.87.48-1.53.84-2.64c.24-.73.42-1.24.55-1.53a2.67 2.67 0 0 0 .15-.53.39.39 0 0 0-.1.14 1.86 1.86 0 0 1-.1.2l-.09.19c-.13.22-.35.56-.65 1s-.62.91-1 1.39-.66.94-1 1.39-.54.78-.7 1a36.93 36.93 0 0 1-4 4.63 25.17 25.17 0 0 1-4.2 3.38 16.06 16.06 0 0 1-3.84 1.73 5.08 5.08 0 0 1-.75.12h-2a2.5 2.5 0 0 1-.65-.1A6.93 6.93 0 0 1 8 28.68a5.83 5.83 0 0 1-1.11-.89 6.24 6.24 0 0 1-.52-.57 5.36 5.36 0 0 1-.37-.63 8.76 8.76 0 0 1-.43-5.76l.14-.72-.28-.33a7.17 7.17 0 0 1-.72-1.47 9.11 9.11 0 0 1-.44-1.65A10.83 10.83 0 0 1 5.11 11a21 21 0 0 1 4-6.07A21.34 21.34 0 0 1 11 3.14a15.12 15.12 0 0 1 2-1.46c.38-.22.8-.44 1.25-.65s.88-.39 1.32-.55a8.8 8.8 0 0 1 1.2-.36 4.16 4.16 0 0 1 .85-.12c.19 0 .28.06.28.1s-.08.06-.24.09L17 .36c-.29.08-.59.18-.91.29s-.63.23-.94.36l-.74.33a15.77 15.77 0 0 0-2.67 1.71 19.81 19.81 0 0 0-2.47 2.3 20.85 20.85 0 0 0-2.05 2.74A17.15 17.15 0 0 0 5.71 11a11.13 11.13 0 0 0-.6 2 13.87 13.87 0 0 0-.21 2 7.54 7.54 0 0 0 0 1.46 12 12 0 0 0 .22 1.18c.09.28.22.62.38 1s.27.58.34.58l.19-.34A14.69 14.69 0 0 1 7.25 16a31.61 31.61 0 0 1 1.82-3.1c.55-.8 1.13-1.57 1.75-2.33s1.26-1.45 1.9-2.11a24.09 24.09 0 0 1 1.87-1.73 11.48 11.48 0 0 1 1.73-1.17 13.24 13.24 0 0 1 2.26-.87 8.63 8.63 0 0 1 2.3-.33 6.09 6.09 0 0 1 1.12.13 3.23 3.23 0 0 1 .89.26 6.77 6.77 0 0 1 1.87 1.3 3.94 3.94 0 0 1 .91 1.27A5.34 5.34 0 0 1 25.92 9a6.67 6.67 0 0 1-.19 2 13.41 13.41 0 0 1-.82 2.13 16.06 16.06 0 0 1-3.38 4.63A17.75 17.75 0 0 1 17 21a13.26 13.26 0 0 1-4.87 1.37 8.93 8.93 0 0 1-4.54-.77c-.22-.19-.38-.24-.48-.14a2.45 2.45 0 0 0-.14.77 9.59 9.59 0 0 0 0 1.75 8 8 0 0 0 .19 1.56 4 4 0 0 0 2.43 3.09 6.16 6.16 0 0 0 4.53-.4A21.88 21.88 0 0 0 21.26 23c.48-.45.92-.89 1.32-1.34s.81-.93 1.23-1.44.85-1.08 1.29-1.71 1-1.35 1.54-2.18l.72-1.06c.26-.38.49-.74.7-1.08l.52-.84a1.55 1.55 0 0 0 .22-.35h.38c.26 0 .42 0 .48.1s.08.2.05.43a6.1 6.1 0 0 1-.19.91c-.13.51-.28 1.1-.46 1.75s-.35 1.34-.55 2S28.14 19.5 28 20c-.44 1.4-.88 2.69-1.32 3.86s-.88 2.33-1.36 3.48A2.78 2.78 0 0 0 25 28a1.34 1.34 0 0 1-.1.29l.39-.1a9.43 9.43 0 0 0 1-.28q1.2-.39 2.61-1c.95-.4 1.83-.81 2.67-1.22l2.13-1.08 1-.55Zm-12.58 6.63a7.29 7.29 0 0 1 .46-1q.21-.39.12-.39a4.77 4.77 0 0 1-.75.24c-.46.13-1 .27-1.65.43q-2.88.72-5 1.37a36.81 36.81 0 0 0-3.74 1.35 26.71 26.71 0 0 0-2.93 1.48A22.05 22.05 0 0 0 6.05 36a5.86 5.86 0 0 0-.67.53c-.26.22-.52.45-.77.69a9.38 9.38 0 0 0-.7.72c-.21.24-.37.44-.5.6A8.85 8.85 0 0 0 1.2 44a4.79 4.79 0 0 0 .1 1.1 3.6 3.6 0 0 0 .38 1 3.23 3.23 0 0 0 .65.91 3.7 3.7 0 0 0 .89.72 4.83 4.83 0 0 0 3.07.39 12.51 12.51 0 0 0 5-2.59 30.52 30.52 0 0 0 5.28-5.52q1.39-1.87 2.76-4.11a51.76 51.76 0 0 0 2.66-5Zm-14.83-10 .14.1a6.35 6.35 0 0 0 1.15.57 6.71 6.71 0 0 0 1.44.44 10.76 10.76 0 0 0 1.35 0 7.12 7.12 0 0 0 1.49-.17 11.48 11.48 0 0 0 2.28-.67 16.05 16.05 0 0 0 2.32-1.25 17.4 17.4 0 0 0 3-2.37 19.89 19.89 0 0 0 2.5-3A13.49 13.49 0 0 0 24 12.43a11.21 11.21 0 0 0 .64-2A8.23 8.23 0 0 0 24.7 9a5.1 5.1 0 0 0-.17-1.27 4 4 0 0 0-1.92-2.16l-.46-.14a2.94 2.94 0 0 0-.74 0 9.85 9.85 0 0 0-6.29 2.45 16.79 16.79 0 0 0-1.54 1.53c-.58.59-1.1 1.18-1.58 1.82a2.13 2.13 0 0 1-.26.41 3.69 3.69 0 0 1-.27.31 7.65 7.65 0 0 0-1.25 1.78A27.19 27.19 0 0 0 8.47 17a19.49 19.49 0 0 0-1.17 3.35Zm34.41 12a2.43 2.43 0 0 1 .7-.17c.08 0-.06.11-.41.27-.54.19-1.13.37-1.77.55s-1.27.34-1.88.48-1.17.26-1.68.34a8.33 8.33 0 0 1-1.24.12h-.44l-.19.38a9.68 9.68 0 0 1-1 1.51 7.25 7.25 0 0 1-1.1 1.18 2.41 2.41 0 0 1-2.06.48 1.89 1.89 0 0 1-1.28-1.66 5.86 5.86 0 0 1 .51-3.09c.61-1.64 1.29-2.53 2.06-2.69l.29-.12a1 1 0 0 0 .29-.17 5.23 5.23 0 0 1 .79-.26 1.74 1.74 0 0 1 .7-.08c1 .16 1.44.9 1.44 2.21a5.24 5.24 0 0 1-.12 1c-.08.4-.16.71-.22.93s0 .1.05.1l.67-.05a17.81 17.81 0 0 0 2.52-.38c1.06-.23 2.19-.52 3.37-.87ZM34 35.23a2.55 2.55 0 0 0 .32-.69s-.19-.09-.51-.12a3.77 3.77 0 0 1-1.43-.42 2 2 0 0 1-.8-.67q-.13-.33-.24-.09a1.18 1.18 0 0 1-.12.36 3.43 3.43 0 0 0-.21.64q-1 2.64-.24 3.27a.8.8 0 0 0 .81 0 4.19 4.19 0 0 0 1.28-.89A5.18 5.18 0 0 0 34 35.18Zm.53-1.2a5.32 5.32 0 0 0 .24-.86c.1-.42.16-.74.19-1a2 2 0 0 0-.55-1.85c-.43-.34-1-.28-1.56.17a.33.33 0 0 0-.14.29.23.23 0 0 1-.15.24l-.14.24-.19.28a1.69 1.69 0 0 0-.29.77c0 .93.62 1.51 1.87 1.73l.55.1a.28.28 0 0 0 .17-.1Zm12.87-.72a8.89 8.89 0 0 0-.29 1.83 3.67 3.67 0 0 0 .09 1.29 2.08 2.08 0 0 0 .29.55 1.07 1.07 0 0 0 .39.36 1.62 1.62 0 0 0 1.27 0 11.61 11.61 0 0 0 2.35-1.24c.32-.2.69-.4 1.11-.63l1.25-.65 1.14-.55q.51-.24.75-.33a5.14 5.14 0 0 1 .72-.15c.22 0 .33 0 .33.05s-.08.08-.24.14a21.52 21.52 0 0 0-4.36 2.36c-.58.35-1.1.64-1.56.88a9.4 9.4 0 0 1-1.13.51c-.26.06-.53.12-.82.17a2.23 2.23 0 0 1-.67 0c-1.15-.22-1.82-1.14-2-2.74l-.09-.57-.58.67C44 36.78 42.89 37.54 42 37.54a1.27 1.27 0 0 1-1-.39 1.79 1.79 0 0 1-.26-1.41 6.17 6.17 0 0 1 .69-2.09 10.72 10.72 0 0 1 1.64-2.47 6.16 6.16 0 0 1 1.87-1.52 2.71 2.71 0 0 1 1-.31 3.54 3.54 0 0 1 .91 0 1.23 1.23 0 0 0 .43.09 3.19 3.19 0 0 0 .34-.76c.32-.74.7-1.52 1.15-2.33s.93-1.64 1.44-2.47 1.05-1.65 1.63-2.45 1.15-1.54 1.73-2.21a8.38 8.38 0 0 1 .62-.74c.26-.28.52-.56.8-.84s.53-.56.79-.8.48-.44.67-.6a7.56 7.56 0 0 1 3.07-1.72 2.93 2.93 0 0 1 .51-.05 2.17 2.17 0 0 1 .45.05 1.34 1.34 0 0 1 1.25 1.32 8.25 8.25 0 0 1-1.06 3.38 30.86 30.86 0 0 1-2.08 3.53 38.51 38.51 0 0 1-2.69 3.48 40.35 40.35 0 0 1-3.1 3.17 29.53 29.53 0 0 1-3.31 2.6l-1 .62a4.43 4.43 0 0 1-.69.34l-.43.09Zm-.44-3.26-.14-.15a.82.82 0 0 0-.74 0 2.24 2.24 0 0 0-1 .62A8.32 8.32 0 0 0 44 31.73a15.57 15.57 0 0 0-1 1.63 16 16 0 0 0-.83 1.64 4.62 4.62 0 0 0-.36 1.25c0 .51.09.77.29.77a1.12 1.12 0 0 0 .48-.24A4.79 4.79 0 0 0 43.7 36a21.45 21.45 0 0 0 1.56-1.58l.6-.68a.55.55 0 0 0 .17-.33c.07-.32.15-.71.26-1.15A13.14 13.14 0 0 1 46.7 31Zm.68 2.25c0 .13 0 .19.07.17a3.64 3.64 0 0 0 .65-.31 25.59 25.59 0 0 0 2.56-1.8 33 33 0 0 0 2.52-2.18 34.12 34.12 0 0 0 3.34-3.89 35.68 35.68 0 0 0 2.59-4 15.69 15.69 0 0 0 1.42-3.34q.38-1.44-.15-1.92c-.19-.19-.57-.14-1.15.15A14.35 14.35 0 0 0 55 19.1a46.63 46.63 0 0 0-4.71 7.11c-.25.45-.5.93-.74 1.44l-.7 1.49c-.22.48-.4.89-.52 1.24a3 3 0 0 0-.2.68 1 1 0 0 1-.14.28 1.41 1.41 0 0 0-.14.39c-.07.22-.13.41-.2.57Zm13.34 1a9.63 9.63 0 0 0-.29 1.83 3.63 3.63 0 0 0 .1 1.29 2 2 0 0 0 .28.55 1.07 1.07 0 0 0 .39.36 1.63 1.63 0 0 0 1.27 0 11.89 11.89 0 0 0 2.38-1.22c.32-.2.68-.4 1.1-.63l1.25-.65 1.13-.55c.33-.16.58-.27.74-.33a5.81 5.81 0 0 1 .72-.15c.22 0 .34 0 .34.05s-.08.08-.24.14a21.21 21.21 0 0 0-4.37 2.36c-.58.35-1.1.64-1.56.88a9.4 9.4 0 0 1-1.13.51c-.26.06-.53.12-.82.17a2.23 2.23 0 0 1-.67 0c-1.15-.22-1.82-1.14-2-2.74l-.1-.57-.58.67c-1.31 1.5-2.41 2.26-3.31 2.26a1.27 1.27 0 0 1-1-.39 1.79 1.79 0 0 1-.26-1.41 6 6 0 0 1 .7-2.09 10.38 10.38 0 0 1 1.63-2.47 6.16 6.16 0 0 1 1.87-1.52 2.78 2.78 0 0 1 1-.31 3.54 3.54 0 0 1 .91 0 1.27 1.27 0 0 0 .43.09 2.8 2.8 0 0 0 .34-.76c.32-.74.7-1.52 1.15-2.33s.93-1.64 1.44-2.47 1.06-1.65 1.64-2.45 1.15-1.54 1.72-2.21a7.16 7.16 0 0 1 .63-.74c.25-.28.52-.56.79-.84s.53-.56.79-.8.48-.44.67-.6a7.56 7.56 0 0 1 3.07-1.72 3 3 0 0 1 .51-.05 2.17 2.17 0 0 1 .45.05 1.34 1.34 0 0 1 1.25 1.32 8.36 8.36 0 0 1-1.05 3.38 32.54 32.54 0 0 1-2.09 3.53 36.77 36.77 0 0 1-2.69 3.48 40.35 40.35 0 0 1-3.1 3.17A28.63 28.63 0 0 1 63.07 32l-1 .62a4.14 4.14 0 0 1-.7.34L61 33Zm-.43-3.26-.15-.15a.82.82 0 0 0-.74 0 2.24 2.24 0 0 0-1 .62 8.32 8.32 0 0 0-1.08 1.25 17.41 17.41 0 0 0-1 1.63 16 16 0 0 0-.83 1.61 4.62 4.62 0 0 0-.36 1.25c0 .51.1.77.29.77a1.12 1.12 0 0 0 .48-.24 4.83 4.83 0 0 0 1.13-.78 21.45 21.45 0 0 0 1.56-1.58l.6-.68a.55.55 0 0 0 .17-.33c.06-.32.15-.71.26-1.15a10.93 10.93 0 0 1 .41-1.3Zm.67 2.25c0 .13 0 .19.07.17a3.33 3.33 0 0 0 .65-.31 25.63 25.63 0 0 0 2.57-1.8c.91-.72 1.75-1.45 2.52-2.18a35.08 35.08 0 0 0 3.33-3.89 34.32 34.32 0 0 0 2.59-4 15.69 15.69 0 0 0 1.42-3.34c.26-1 .21-1.6-.14-1.92-.2-.19-.58-.14-1.16.15a14.35 14.35 0 0 0-4.46 3.93 45.89 45.89 0 0 0-4.7 7.11q-.39.67-.75 1.44l-.69 1.49c-.23.48-.4.89-.53 1.24a2.74 2.74 0 0 0-.19.68 1.17 1.17 0 0 1-.15.28 1.41 1.41 0 0 0-.14.39c-.07.22-.13.41-.19.57Zm18.38-.24c.07 0 .09 0 .07.08a1.12 1.12 0 0 1-.31.31c-.22.22-.53.52-.93.89l-1.25 1.15c-.43.4-.86.77-1.27 1.13s-.76.62-1 .81a6.53 6.53 0 0 1-1.25.79 7.49 7.49 0 0 1-1.25.51 5.12 5.12 0 0 1-1 .09 4.36 4.36 0 0 1-1-.09 2.41 2.41 0 0 1-1.71-1.54 4.75 4.75 0 0 1 0-2.88 6.74 6.74 0 0 1 1.73-3.41 3.69 3.69 0 0 1 .88-.64 3.61 3.61 0 0 1 .89-.27q1.44 0 1.44 1.11a2.12 2.12 0 0 1-.5 1.27 3.68 3.68 0 0 1-1.32 1 2.72 2.72 0 0 1-.55.29 2.11 2.11 0 0 1-.51.05h-.57v.24a12.29 12.29 0 0 0-.31 1.51 8.09 8.09 0 0 0-.08 1.08 2 2 0 0 0 .58 1.49q.67.77 2.16.24a7.46 7.46 0 0 0 1.08-.46 11.41 11.41 0 0 0 1.13-.7c.41-.28.89-.65 1.44-1.1s1.21-1 2-1.73c.36-.29.65-.53.89-.74s.36-.33.36-.36a.7.7 0 0 1 .29-.1Zm-9.12-.28c-.16.38-.21.57-.14.57s.45 0 1-.19a2.9 2.9 0 0 0 .72-.53 1.94 1.94 0 0 0 .62-1.39 2.69 2.69 0 0 0 0-.38.53.53 0 0 0-.12-.2l-.15-.19-.24.1a2.81 2.81 0 0 0-.6.53 6 6 0 0 0-.6.72 10.11 10.11 0 0 1-.51.97Zm19.11.76c.28 0 .11.16-.53.39-1.6.57-3 1.11-4.11 1.61s-2.13 1-3 1.46l-.57.38v1.23a1.12 1.12 0 0 1-.1.45 4 4 0 0 1-1 1.8A4.56 4.56 0 0 1 78.57 41a2.35 2.35 0 0 1-.64.12 1.22 1.22 0 0 1-.6-.07c-.48-.16-.52-.62-.1-1.37a8.43 8.43 0 0 1 2.26-2.38 2.77 2.77 0 0 0 .4-.28 1.7 1.7 0 0 0 .22-.2c.06-.06 0-.25-.07-.57a5.15 5.15 0 0 0-.55-1.06 4 4 0 0 1-.82-1.63 3 3 0 0 1 .38-1.49 6.24 6.24 0 0 1 1.16-1.58 2.42 2.42 0 0 1 .5-.43.85.85 0 0 1 .46-.1c.25 0 .38.05.38.14a.63.63 0 0 1-.12.29c-.08.13-.17.27-.26.43a4.71 4.71 0 0 0-1.11 2.84.86.86 0 0 0 .1.31c.06.14.13.29.19.45a5.29 5.29 0 0 0 .29.51 4.3 4.3 0 0 1 .29.55l.28.58.72-.44c.26-.12.57-.29.94-.5s.76-.41 1.17-.6l1.18-.52c.37-.18.68-.31.94-.41s.67-.26 1-.38l1.06-.34.84-.24.41-.1Zm-9.36 4.52-.2.14a10.18 10.18 0 0 0-1.46 1.32 4.79 4.79 0 0 0-1 1.37 1.11 1.11 0 0 0-.15.67c0 .19.11.29.24.29a1.39 1.39 0 0 0 .48-.24 2.71 2.71 0 0 0 .43-.29 6.2 6.2 0 0 0 .48-.43 3.53 3.53 0 0 0 1.16-2.35Zm19.24-4.52c.29 0 .11.16-.52.39-1.61.57-3 1.11-4.11 1.61s-2.13 1-3 1.46l-.57.38v1.23a1.31 1.31 0 0 1-.1.45 4 4 0 0 1-1 1.8A4.56 4.56 0 0 1 88.46 41a2.36 2.36 0 0 1-.65.12 1.26 1.26 0 0 1-.6-.07c-.48-.16-.51-.62-.09-1.37a8.37 8.37 0 0 1 2.25-2.38 2.91 2.91 0 0 0 .41-.28l.22-.2c.06-.06 0-.25-.07-.57a5.24 5.24 0 0 0-.56-1.06 4.07 4.07 0 0 1-.81-1.63 2.93 2.93 0 0 1 .38-1.49 6.2 6.2 0 0 1 1.15-1.58 2.4 2.4 0 0 1 .51-.43.83.83 0 0 1 .45-.1c.26 0 .39.05.39.14a.63.63 0 0 1-.12.29l-.27.43A4.68 4.68 0 0 0 90 33.7a1 1 0 0 0 0 .3c.07.14.13.29.2.45a5.29 5.29 0 0 0 .29.51 4.1 4.1 0 0 1 .28.55l.29.58.72-.44c.26-.12.57-.29.94-.5s.76-.41 1.17-.6l1.22-.55c.37-.18.68-.31.93-.41s.68-.26 1.06-.38l1.06-.34.84-.24.41-.1Zm-9.36 4.52-.19.14a10.18 10.18 0 0 0-1.46 1.32 4.86 4.86 0 0 0-1 1.37 1.18 1.18 0 0 0-.14.67c0 .19.11.29.24.29a1.58 1.58 0 0 0 .48-.24 2.71 2.71 0 0 0 .43-.29 6.2 6.2 0 0 0 .48-.43 3.52 3.52 0 0 0 1.15-2.35Z" data-name="Layer 1"></path></g></svg> 