<svg xmlns="http://www.w3.org/2000/svg" xmlns:xlink="http://www.w3.org/1999/xlink" id="Layer_1" x="0px" y="0px" viewBox="0 0 1711 551" style="enable-background:new 0 0 1711 551;" xml:space="preserve"> <style type="text/css"> .st0{fill:#C9A234;} .st1{fill:#C9A234;stroke:#C9A234;stroke-width:20.3705;stroke-miterlimit:10;} </style> <g> <path class="st0" d="M351.64,150.67v13.44c0,0-43.39,19.74-25.52,45.26c0,0,0,6.3,25.52,35.05v72.14l-63.8-79.12 c0,0-20.42-22.97-2.55-53.6C285.28,183.85,303.15,150.67,351.64,150.67z"></path> <path class="st0" d="M356.57,150.67c0,0.01,0,93.41,0,93.41l43.56,54.62c0-14.43,0-28.85,0-43.28c0-23.56,0-47.13,0-70.69 c0-5.25-2.14-14.95,0.71-19.64c2.1-3.45,8.6-4.32,12.2-4.19c11.03,0.39,20.98,8.38,28.62,15.57c2.71,2.54,8.14,6.49,9.52,9.94 c0,0,5.1,12.76-5.1,17.87c-1.5,0.75-4.96-0.24-6.42-0.65c-7.9-2.19-9.97-10.59-19.03-4.66c-8.53,5.58-6.87,14.53-1.35,21.89 c3.78,5.04,9.61,9.4,15.54,11.45c6.95,2.41,13.98,0.88,19.81-3.44c13.3-9.84,18.04-24.6,13.97-40.35 c-3.06-11.85-11.65-20.89-22.07-26.85c-13.97-7.99-28.23-11-44.13-11c-11.72,0-23.43,0-35.15,0 C366.66,150.67,356.57,150.67,356.57,150.67z"></path> <path class="st0" d="M356.57,252.76c0,0,42.28,57.42,42.28,57.42s15.31,63.8-47.22,77.84c-15.55,3.49-31.87,4.41-47.25-0.6 c-13.54-4.41-30.34-15.73-33.56-30.67c-1.41-6.55-1.2-16.06,3.55-21.25c2.83-3.1,7-4.05,11.06-3.82c3.98,0.22,9.01,0.86,11.39,4.39 c1.52,2.25,2.44,4.87,2.61,7.57c0.19,2.92-0.22,5.87,0.29,8.77c0.58,3.28,2.26,6.69,3.79,9.64c3.55,6.85,8.84,13.13,16.12,16.13 c0.85,0.35,1.73,0.66,2.64,0.92c17.76,5.07,29.68-14.56,33.12-29.15c2.48-10.53,1.16-22.4,1.16-33.13c0-14.76,0-29.51,0-44.27 c0-4.76,0-9.52,0-14.27C356.57,257.28,357.2,253.61,356.57,252.76z"></path> </g> <path class="st1" d="M553.68,16.22H373.76h-7.45H186.39L19.96,181.66l89.96,89.43l12.72,12.65l225.67,224.34l17.99,17.89l3.72,3.7 l3.72-3.7l17.99-17.89l225.67-224.34l12.72-12.65l89.96-89.43L553.68,16.22z M553.58,41.41l132.08,131.3H531.19l-18.8-18.69 L553.58,41.41z M537.1,34.1l-38.76,105.96L391.75,34.1H537.1z M227.68,154.02l-18.8,18.69H54.4l132.08-131.3L227.68,154.02z M202.96,34.1h145.36L241.72,140.07L202.96,34.1z M54.4,190.6h136.49l-68.24,67.84L54.4,190.6z M370.03,504.37L135.36,271.09 l98.96-98.37l0.14-0.14l14.04-13.96L370.03,37.81l121.53,120.81l14.04,13.96l0.14,0.14l98.96,98.37L370.03,504.37z M617.42,258.44 l-68.24-67.84h136.49L617.42,258.44z"></path> <g> <path d="M830.47,528.52c-4.95-2.73-8.77-6.59-11.45-11.59c-2.68-5-4.02-10.78-4.02-17.35v-2.08h6.25v1.94 c0,8.33,2.36,14.9,7.08,19.71c4.72,4.81,11.1,7.22,19.15,7.22c7.77,0,13.97-2.47,18.6-7.42c4.63-4.95,6.94-11.91,6.94-20.89v-64.11 h6.24v64.25c0,7.12-1.32,13.28-3.96,18.46c-2.64,5.18-6.36,9.14-11.17,11.87c-4.81,2.73-10.36,4.09-16.65,4.09 C841.09,532.62,835.42,531.25,830.47,528.52z"></path> <path d="M984.03,524.98h48.16v6.11h-54.4v-97.14h52.87v6.11h-46.63v37.47h43.02v5.97h-43.02V524.98z"></path> <path d="M1243.4,433.95h6.52l-30.67,97.14h-5.69l-29.97-87.01l-29.98,87.01h-5.69l-30.67-97.14h6.66l27.2,86.18l29.7-86.18h5.69 l29.7,86.04L1243.4,433.95z"></path> <path d="M1344.98,524.98h48.16v6.11h-54.4v-97.14h52.87v6.11h-46.63v37.47H1388v5.97h-43.02V524.98z"></path> <path d="M1494.99,524.98h46.35v6.11h-52.6v-97.14h6.25V524.98z"></path> <path d="M1635.08,524.36c-6.06-5.5-9.09-12.88-9.09-22.13h6.38c0,7.4,2.45,13.28,7.36,17.62c4.9,4.35,11.89,6.52,20.96,6.52 c8.23,0,14.62-1.89,19.15-5.69c4.53-3.79,6.8-8.7,6.8-14.71c0-4.72-1.23-8.46-3.68-11.24c-2.45-2.78-5.51-4.86-9.16-6.24 c-3.66-1.39-8.58-2.82-14.78-4.3c-6.75-1.67-12.19-3.33-16.31-5c-4.12-1.67-7.59-4.21-10.41-7.63c-2.82-3.42-4.23-8.05-4.23-13.88 c0-4.81,1.2-9.13,3.61-12.97c2.4-3.84,5.97-6.85,10.69-9.02c4.72-2.17,10.41-3.26,17.07-3.26c6.38,0,11.91,1.18,16.58,3.54 c4.67,2.36,8.26,5.62,10.76,9.78c2.5,4.16,3.75,8.98,3.75,14.43h-6.38c0-6.38-2.22-11.56-6.66-15.54 c-4.44-3.98-10.55-5.97-18.32-5.97c-7.87,0-13.97,1.76-18.32,5.27c-4.35,3.52-6.52,8.05-6.52,13.6c0,4.35,1.16,7.82,3.47,10.41 c2.31,2.59,5.23,4.56,8.74,5.9c3.51,1.34,8.42,2.8,14.71,4.37c6.94,1.76,12.51,3.47,16.72,5.13c4.21,1.67,7.77,4.28,10.69,7.84 c2.91,3.56,4.37,8.4,4.37,14.5c0,5.18-1.27,9.81-3.82,13.88c-2.54,4.07-6.24,7.26-11.1,9.58c-4.86,2.31-10.66,3.47-17.42,3.47 C1649.68,532.62,1641.14,529.86,1635.08,524.36z"></path> </g> <g> <path d="M870.41,367.94c-18.08-9.96-32.03-24.08-41.82-42.33c-9.81-18.25-14.7-39.37-14.7-63.37v-7.6h22.81v7.1 c0,30.42,8.62,54.42,25.85,71.99c17.24,17.58,40.56,26.36,69.96,26.36c28.39,0,51.03-9.04,67.93-27.12 c16.9-18.08,25.35-43.51,25.35-76.3V22.45h22.81v234.72c0,26.03-4.82,48.5-14.45,67.43c-9.63,18.93-23.24,33.38-40.81,43.34 c-17.58,9.96-37.86,14.96-60.84,14.96C909.19,382.9,888.49,377.91,870.41,367.94z"></path> <path d="M1331.49,36.14c17.91,9.12,31.68,21.89,41.32,38.28c9.63,16.4,14.45,35.07,14.45,56.02c0,20.96-4.82,39.72-14.45,56.27 c-9.63,16.56-23.41,29.4-41.32,38.53c-17.92,9.12-38.87,13.69-62.86,13.69h-90.75v138.4h-22.81V22.45h113.56 C1292.62,22.45,1313.57,27.01,1331.49,36.14z M1338.33,192.79c17.06-15.88,25.6-36.67,25.6-62.36c0-25.68-8.62-46.39-25.86-62.1 c-17.24-15.72-40.73-23.57-70.47-23.57h-89.73v171.86h89.73C1297.69,216.61,1321.26,208.68,1338.33,192.79z"></path> <path d="M1483.83,352.73c-22.14-20.1-33.21-47.06-33.21-80.86h23.32c0,27.04,8.95,48.5,26.87,64.38 c17.91,15.89,43.42,23.83,76.55,23.83c30.08,0,53.4-6.92,69.96-20.79c16.56-13.85,24.84-31.76,24.84-53.74 c0-17.24-4.48-30.92-13.43-41.06c-8.96-10.14-20.11-17.74-33.46-22.81c-13.36-5.07-31.35-10.31-53.99-15.72 c-24.67-6.08-44.53-12.17-59.57-18.25c-15.04-6.08-27.72-15.38-38.02-27.88c-10.31-12.5-15.46-29.4-15.46-50.7 c0-17.57,4.39-33.37,13.18-47.4c8.79-14.02,21.8-25.01,39.04-32.95c17.24-7.94,38.02-11.91,62.36-11.91 c23.32,0,43.51,4.31,60.58,12.93c17.06,8.62,30.16,20.53,39.29,35.74c9.12,15.21,13.69,32.79,13.69,52.72h-23.32 c0-23.32-8.11-42.24-24.33-56.78c-16.22-14.53-38.53-21.8-66.92-21.8c-28.73,0-51.04,6.42-66.92,19.26 c-15.89,12.85-23.83,29.4-23.83,49.68c0,15.89,4.22,28.56,12.67,38.02c8.44,9.47,19.09,16.65,31.94,21.55 c12.84,4.9,30.75,10.23,53.74,15.97c25.35,6.42,45.71,12.67,61.09,18.76c15.38,6.08,28.39,15.64,39.04,28.64 c10.65,13.01,15.97,30.67,15.97,52.98c0,18.93-4.65,35.83-13.94,50.7c-9.3,14.88-22.81,26.54-40.56,34.98 c-17.74,8.44-38.96,12.67-63.62,12.67C1537.14,382.9,1505.96,372.84,1483.83,352.73z"></path> </g> </svg>