<?xml version="1.0" encoding="UTF-8"?> <svg xmlns="http://www.w3.org/2000/svg" viewBox="0 0 116.21 40.63"><g data-name="Layer 2"><path d="M5.24 30.6Q8.54 20 11.35 9.27q1.65-6 2.23-8a.44.44 0 0 1 .13-.27 1 1 0 0 1 .17-.1L14 .85a.18.18 0 0 0 .08-.11 1 1 0 0 0 .09-.26l.12-.24a.21.21 0 0 1 .11-.11h.37c.19-.07.31 0 .37 0a1.42 1.42 0 0 1-.06.73q-3.3 13.59-7.81 27.8c-.06.15-.11.3-.16.44-.17.47-.23.74-.18.8s.28 0 .67-.3a18 18 0 0 1 6-2.24 30.48 30.48 0 0 1 8.46-.36 68.71 68.71 0 0 1 11.77 2.2.32.32 0 0 1 .14.14.15.15 0 0 1 0 .17c0 .05-.12.05-.22 0a63.23 63.23 0 0 0-12.06-2.19 29 29 0 0 0-8.56.54 17.66 17.66 0 0 0-5.89 2.5l-.17.11-.37.26a.71.71 0 0 0-.2.27 3.13 3.13 0 0 0-.16.43l-.07.16a35 35 0 0 1-2.49 5.31 17.64 17.64 0 0 1-2.15 3.17c-.54.51-.93.67-1.19.48a1.41 1.41 0 0 1-.44-1.1 4.76 4.76 0 0 1 .16-1.56A12.12 12.12 0 0 1 3.1 33c.35-.36.73-.72 1.15-1.08a4 4 0 0 1 .33-.26 3.85 3.85 0 0 0 .28-.27 1.36 1.36 0 0 0 .14-.24c.09-.15.16-.3.24-.55Zm-1 3c.3-.81.42-1.24.36-1.28s-.35.22-.85.76l-.26.29A11.33 11.33 0 0 0 .64 38a5.48 5.48 0 0 0-.15.69 3.23 3.23 0 0 0-.06.86c0 .26.09.43.21.5s.35 0 .66-.36c.83-.89 1.79-2.93 2.9-6.09ZM13.7.72c-.1 0-.15 0-.16-.07a.56.56 0 0 1 .06-.23.79.79 0 0 1 .19-.22c.12-.06.21-.08.25-.05a.2.2 0 0 1 0 .18.47.47 0 0 1-.13.25.49.49 0 0 1-.21.14ZM42.27 27.6a3.6 3.6 0 0 1-1.83-2.6 13.42 13.42 0 0 1-.13-4.09A41.07 41.07 0 0 1 41 16.8a2.79 2.79 0 0 0 .09-.65.62.62 0 0 0-.07-.29.13.13 0 0 0-.13-.06.16.16 0 0 0-.12.08 23.55 23.55 0 0 1-1.83 2.36 7.36 7.36 0 0 1-2.44 1.9 2.64 2.64 0 0 1-2.69-.27 1.58 1.58 0 0 1-.47-1.25 7.71 7.71 0 0 1 .2-1.91 10.41 10.41 0 0 1 .46-1.77 1.6 1.6 0 0 1 .25-.44 1.33 1.33 0 0 1 .24-.19c.05 0 .09-.05.14-.12q.45-.42.78-.21c.23.14.29.42.18.85l-.26.79q-1.1 3.83-.33 4.2a2.26 2.26 0 0 0 2.17-.7 14.24 14.24 0 0 0 2.31-2.57 26.18 26.18 0 0 0 1.74-2.71.59.59 0 0 1 .49-.33.57.57 0 0 1 .47.29 1 1 0 0 1 .11.75c-1 4.51-1.38 7.81-1.16 9.89s1.19 3 2.87 2.81a11.76 11.76 0 0 0 5-2.45 63.75 63.75 0 0 0 5.92-5q3-2.86 5.47-5.37c.11-.11.2-.16.27-.14s.11.06.12.15a.32.32 0 0 1-.13.27c-.23.25-.54.56-.91.94q-1.45 1.55-3.75 3.79t-4.89 4.39a25.86 25.86 0 0 1-4.94 3.28 4.83 4.83 0 0 1-3.89.49Zm-7.81-14.06c.16-.07.25-.07.28 0a.19.19 0 0 1 0 .2 1 1 0 0 1-.25.25c-.09.08-.17.09-.22 0a.18.18 0 0 1 0-.21.54.54 0 0 1 .19-.24Zm45 1.12c.08-.08.15-.11.2-.09a.1.1 0 0 1 .09.09.16.16 0 0 1 0 .14c-.43.41-.86.82-1.29 1.25a44.87 44.87 0 0 1-4.55 4 13.42 13.42 0 0 1-5.48 2.53 5.23 5.23 0 0 1-3.1-.22 5.87 5.87 0 0 1-2.62-2.42 13.68 13.68 0 0 1-1-1.88l-.12-.26c0-.12-.06-.18-.1-.17s-.12.09-.23.27c-.48.69-.91 1.35-1.29 2l-.77 1.24c-.13.16-.21.21-.26.16s0-.16.09-.32a35.17 35.17 0 0 1 2-3.21l.18-.26a.53.53 0 0 0 .13-.16.25.25 0 0 0 0-.14.81.81 0 0 0-.14-.21.77.77 0 0 0-.07-.17 15.23 15.23 0 0 1-.63-2.13v-.2a1.27 1.27 0 0 1 0-.22c0-.07.06-.09.12-.07a1.34 1.34 0 0 0 .35.06h.26a.47.47 0 0 1 .2 0s.1 0 .14.14a2.34 2.34 0 0 1 .11.43 2.15 2.15 0 0 1 0 .45 4.14 4.14 0 0 0 .1.63v.24a.52.52 0 0 0 .1.28s.1 0 .21-.17l.19-.23a12.79 12.79 0 0 1 3.11-2.42c.16-.06.25-.06.28 0s0 .14-.16.22a11.33 11.33 0 0 0-3 2.34l-.17.19a2.63 2.63 0 0 0-.26.29.37.37 0 0 0 0 .23 1.21 1.21 0 0 0 .1.37v.14a8.24 8.24 0 0 0 2.35 3.76 4.67 4.67 0 0 0 4.49.78 13.45 13.45 0 0 0 4.19-2 38 38 0 0 0 3.82-3c1.19-1.07 1.97-1.81 2.43-2.28Zm-18.61-.58c-.08-.07-.11-.12-.09-.17a.15.15 0 0 1 .14-.09.69.69 0 0 1 .25 0 .21.21 0 0 1 .17.07s0 .09 0 .17a.4.4 0 0 1-.21.09.39.39 0 0 1-.26-.07Zm32.15.58c.06-.11.12-.16.19-.16a.1.1 0 0 1 .11.09.33.33 0 0 1-.07.26A23.07 23.07 0 0 1 89 19.3a26.85 26.85 0 0 1-5.81 3.7c-2 .93-3.61 1.16-4.88.69a2.77 2.77 0 0 1-1.4-2.95A13.73 13.73 0 0 1 78.25 16a26 26 0 0 1 2.84-4.79 10.73 10.73 0 0 1 3.08-3A2.23 2.23 0 0 1 85.61 8a1.45 1.45 0 0 1 1.09.79 2.11 2.11 0 0 1 .09 1.58 7.29 7.29 0 0 1-1.87 2.81 31.94 31.94 0 0 1-5.43 4.28 1.93 1.93 0 0 0-.6.49 2.81 2.81 0 0 0-.39.89 10.11 10.11 0 0 0-.5 2.44 2.08 2.08 0 0 0 .49 1.63 3.27 3.27 0 0 0 3.22.21 19 19 0 0 0 4.39-2.27 37.19 37.19 0 0 0 4.22-3.3A18 18 0 0 0 93 14.66Zm-13.22.8a4.61 4.61 0 0 0-.36 1c0 .22.1.23.43 0a32.61 32.61 0 0 0 2.65-1.94 18.49 18.49 0 0 0 2.83-2.75 3.56 3.56 0 0 0 1-2.74c-.14-.64-.68-.79-1.6-.45a8.44 8.44 0 0 0-2.48 2.46 24.58 24.58 0 0 0-2.46 4.42Zm36.3-.77c-.25.25-.55.57-.91 1q-1.46 1.51-3.75 3.77t-4.89 4.38a26.25 26.25 0 0 1-5 3.3 4.73 4.73 0 0 1-3.94.48A3.3 3.3 0 0 1 95.72 25a13.15 13.15 0 0 1 0-3.54 11.92 11.92 0 0 0 0-3.54 3.14 3.14 0 0 0-.66-1.25 6.27 6.27 0 0 0-.94-.83 9.23 9.23 0 0 1-1-.8 1.87 1.87 0 0 1-.65-1.43c0-.45.15-.73.47-.84a.62.62 0 0 1 .77.14 1 1 0 0 1 .19.87 1 1 0 0 1-.24.44.89.89 0 0 0-.15.29.33.33 0 0 0 .13.3 19.08 19.08 0 0 0 1.47 1.31 4.48 4.48 0 0 1 1.36 1.45 7.18 7.18 0 0 1 .53 3.09c-.44 4.66.37 6.85 2.43 6.59a12.25 12.25 0 0 0 5.07-2.46 62 62 0 0 0 5.91-5q3-2.86 5.45-5.4c.13-.1.23-.15.3-.12s.1.07.1.16a.35.35 0 0 1-.17.26Zm-22.87-.54a.9.9 0 0 0 .23-.4.73.73 0 0 0 0-.41c0-.12-.14-.15-.3-.11a.48.48 0 0 0-.18.52.67.67 0 0 0 .09.37c.08.07.12.07.17.03Z" data-name="Layer 1"></path></g></svg> 