<?xml version="1.0" encoding="UTF-8"?> <svg xmlns="http://www.w3.org/2000/svg" viewBox="0 0 173.13 43.78"><g data-name="Layer 2"><path d="M26.06 24a22.57 22.57 0 0 1-7.15 7.3 16.31 16.31 0 0 1-8.83 2.78A11.42 11.42 0 0 1 5.18 33a9.17 9.17 0 0 1-3.74-3.19A8.83 8.83 0 0 1 0 24.72a24.16 24.16 0 0 1 2.64-10.54A39 39 0 0 1 10 3.94a2.73 2.73 0 0 1 .92-.58 3 3 0 0 1 1-.14 2 2 0 0 1 .94.24c.3.16.46.35.46.57a1.49 1.49 0 0 1-.17.55l-.24.42a3.92 3.92 0 0 0 .7-.07 11.16 11.16 0 0 1 1.61-.07 21.42 21.42 0 0 1 3.78.49 18 18 0 0 1 3.48.94 11.83 11.83 0 0 1 4.76 3.57 7.74 7.74 0 0 1 1.63 4.68A17.72 17.72 0 0 1 26.06 24Zm-.57-13a9.62 9.62 0 0 0-3.84-2.91 8.72 8.72 0 0 0-3.51-.62c-.44 0-1.05 0-1.82.09h-1.78c-1.53 0-2.3-.32-2.3-1a4 4 0 0 1 0-.62 1.89 1.89 0 0 1 .09-.39 2.34 2.34 0 0 0-1.63.58 31.83 31.83 0 0 0-6.07 8.69 21.31 21.31 0 0 0-2.14 9q0 4.08 2 5.93a8 8 0 0 0 5.6 1.85 15.28 15.28 0 0 0 7.89-2.3 19.06 19.06 0 0 0 6.29-6.05 14.09 14.09 0 0 0 2.42-7.78 7.44 7.44 0 0 0-1.2-4.47Zm25.29 17a36.84 36.84 0 0 1-11.52 2.4c-.06 2.18-.09 4-.09 5.33a47.28 47.28 0 0 0 .24 5q.09.87.09 1.2a2.49 2.49 0 0 1-.33 1.32 1.08 1.08 0 0 1-1 .56q-.87 0-1-.63-.06-.81-.12-2.52c-.05-1.13-.07-2.28-.07-3.43v-6.72l-.88.05h-1.28c-.77 0-1.15-.53-1.15-1.59 0-.77.19-1.15.58-1.15a7 7 0 0 1 1.15.29 5.91 5.91 0 0 0 1.63.29V14.81l-1.58-.17a4.37 4.37 0 0 1-1.75-.45 1.07 1.07 0 0 1-.55-1c0-.83.16-1.25.48-1.25a3.09 3.09 0 0 1 1.29.38l.58.27a4.57 4.57 0 0 0 1.34.31 3.71 3.71 0 0 1 .55-1.06 1.42 1.42 0 0 1 1-.28c.64 0 1 .12 1 .38a1.56 1.56 0 0 1-.15.5 2 2 0 0 0-.14.7A36.81 36.81 0 0 1 45.91 15a24.88 24.88 0 0 1 6.53 3.34q2.76 2 2.76 4.41 0 3.37-4.42 5.25Zm0-8.73a20.27 20.27 0 0 0-5.54-2.69A41.75 41.75 0 0 0 39.07 15c.07 1.86.11 4.32.15 7.37s0 5.08 0 6.07a27.53 27.53 0 0 0 6.15-.74 20.14 20.14 0 0 0 5.49-2c1.49-.84 2.24-1.78 2.24-2.8.04-1.35-.73-2.56-2.27-3.65Zm27.7 15.36a1.62 1.62 0 0 1-1.2.43c-.64 0-1.23-.67-1.75-2a14.93 14.93 0 0 1-1-4.17c-.13-1.38-.22-4.16-.29-8.35v-3.76a74.82 74.82 0 0 1-3.79 7.54 55.89 55.89 0 0 1-4.83 7.25q-2.42 3-4 3a2.06 2.06 0 0 1-2.09-1.68A20.55 20.55 0 0 1 59 27.5a38.19 38.19 0 0 1 .89-7.72 26.84 26.84 0 0 1 2-6.58 6.14 6.14 0 0 1 .81-1.37 1 1 0 0 1 .77-.36q1.2 0 1.2.48a3.48 3.48 0 0 1-.48 1.11A29.69 29.69 0 0 0 62 18.82a34 34 0 0 0-.95 9c0 2.53.35 3.79 1 3.79s2-.92 3.39-2.76a51.5 51.5 0 0 0 4.24-6.6A58.17 58.17 0 0 0 73 15.6a24.05 24.05 0 0 0 .86-3 6.5 6.5 0 0 1 .29-1.17c.1-.24.21-.36.34-.36a2.06 2.06 0 0 1 1.15.43 1.18 1.18 0 0 1 .62.91q0 2.31.17 7.9t.41 7.75A9.11 9.11 0 0 0 77.5 31a8.43 8.43 0 0 0 1 1.65 2.16 2.16 0 0 1 .48.75 1.62 1.62 0 0 1-.45 1.21Zm8.4-.91a3.32 3.32 0 0 1-1.39.28c-.39 0-.75-.45-1.08-1.36a12.72 12.72 0 0 1-.41-4.18q0-5.41.17-13.1t.21-11.57a8.06 8.06 0 0 1 .51-2.59A1.63 1.63 0 0 1 86.45 0a.5.5 0 0 1 .5.41A6.55 6.55 0 0 1 87.07 2s0 .13 0 .31v.94q-.85 12.62-.86 24.62a8.63 8.63 0 0 0 .7 3.26c.46 1.16.69 1.76.69 1.83-.05.29-.26.54-.67.74Zm24-11a13.48 13.48 0 0 1-1.28 3.8 17.07 17.07 0 0 1-3.84 5.42 8.71 8.71 0 0 1-6.31 2.5 7.22 7.22 0 0 1-5.13-1.92q-2.07-1.92-2.07-5.91a17.27 17.27 0 0 1 1.73-7.41 17.26 17.26 0 0 1 4.51-6 8.88 8.88 0 0 1 5.76-2.33 5.41 5.41 0 0 1 3 .79 2.56 2.56 0 0 1 1.23 2.28 4.38 4.38 0 0 1-1.9 3.26 17.91 17.91 0 0 1-4.82 2.8 30.73 30.73 0 0 1-6.24 1.73 16.79 16.79 0 0 0-.58 4.27 6.45 6.45 0 0 0 1.32 4.32 4.71 4.71 0 0 0 3.74 1.55 7.57 7.57 0 0 0 6-2.64 24.67 24.67 0 0 0 3.84-5.95c.06-.13.18-.38.34-.74s.3-.56.43-.56.39.24.39.72Zm-5.36-9.45a3.77 3.77 0 0 0-1.85-.43 6 6 0 0 0-3.5 1.2 11.14 11.14 0 0 0-2.81 2.88 10.07 10.07 0 0 0-1.46 3 17 17 0 0 0 4.66-1.25 19.75 19.75 0 0 0 4.1-2.2c1.1-.8 1.66-1.46 1.66-2a1.33 1.33 0 0 0-.7-1.22Zm25.13 22.29a1.67 1.67 0 0 1-1.15.41 1.54 1.54 0 0 1-.82-.21.69.69 0 0 1-.33-.6q0-2 .28-6.1c.2-2.94.29-5.39.29-7.34s-.05-3.44-.17-4.64-.37-1.8-.79-1.8c-1.09 0-2.28 1.36-3.57 4.06s-2.78 6.26-4.44 10.68l-.72 1.92a1.62 1.62 0 0 1-.65.77 1.78 1.78 0 0 1-.94.29 2.09 2.09 0 0 1-.77-.1c-.12-.06-.2-.26-.24-.58l-.38-3.93-.72-6.91c-.22-2.76-.5-5.16-.82-7.2a6.61 6.61 0 0 1-.14-1.11 1.39 1.39 0 0 1 .62-1.17 2.36 2.36 0 0 1 1.44-.46c.32 0 .56.77.7 2.3s.3 4 .46 7.44l.19 2.55c.25 3.23.4 5.28.43 6.14a4.4 4.4 0 0 0 .26-.65c.08-.24.19-.5.32-.79A121.68 121.68 0 0 1 124 17.3q2.28-4.48 4.39-4.48 1.49 0 2 2.52a37.59 37.59 0 0 1 .7 6.45q.14 4.37.14 12.77a1.24 1.24 0 0 1-.48.98Zm19.66-10.1a28.94 28.94 0 0 1-2 2.69 34.4 34.4 0 0 1-4.48 4.65 6.5 6.5 0 0 1-4.16 1.64 3.6 3.6 0 0 1-3-1.59 6 6 0 0 1-1.17-3.65 24.72 24.72 0 0 1 1.63-7.77 31.21 31.21 0 0 1 4.13-8.16c1.66-2.31 3.33-3.46 5-3.46a2.5 2.5 0 0 1 1.82.77 4.93 4.93 0 0 1 .82 1.15 2.75 2.75 0 0 1 .38 1.3 10.07 10.07 0 0 1-.21 1.89c-.15.72-.3 1.08-.46 1.08a.6.6 0 0 1-.62-.52 6.42 6.42 0 0 1-.19-1.35 10.1 10.1 0 0 0-.29-1.65c-.1-.28-.24-.41-.43-.41-1.51 0-3 1-4.37 3.14a29.19 29.19 0 0 0-3.46 7.3A22.81 22.81 0 0 0 138 28.9c0 2.11.7 3.16 2.11 3.16a5.36 5.36 0 0 0 2.81-.76 15 15 0 0 0 2.66-2.16 47.15 47.15 0 0 0 4-4.56c.07-.1.25-.35.56-.75s.52-.6.64-.6c.39 0 .58.15.58.43a6.35 6.35 0 0 1-.95 1.78Zm22.72-2.74a13.33 13.33 0 0 1-1.27 3.8 17.07 17.07 0 0 1-3.76 5.4 8.71 8.71 0 0 1-6.31 2.5 7.27 7.27 0 0 1-5.14-1.92q-2.06-1.92-2.06-5.91a17.12 17.12 0 0 1 1.73-7.41 17.14 17.14 0 0 1 4.51-6 8.84 8.84 0 0 1 5.76-2.33 5.41 5.41 0 0 1 3 .79 2.55 2.55 0 0 1 1.22 2.28 4.37 4.37 0 0 1-1.89 3.26 18.06 18.06 0 0 1-4.9 2.82 30.73 30.73 0 0 1-6.24 1.73 16.79 16.79 0 0 0-.58 4.27 6.45 6.45 0 0 0 1.32 4.32 4.71 4.71 0 0 0 3.77 1.53 7.6 7.6 0 0 0 6-2.64 25.29 25.29 0 0 0 3.81-5.93c.06-.13.17-.38.34-.74s.3-.56.43-.56.36.24.36.72Zm-5.35-9.45a3.77 3.77 0 0 0-1.85-.43 6 6 0 0 0-3.5 1.2 11.14 11.14 0 0 0-2.81 2.88 10.07 10.07 0 0 0-1.46 3 16.83 16.83 0 0 0 4.65-1.25 19.85 19.85 0 0 0 4.11-2.2c1.1-.8 1.65-1.46 1.65-2a1.32 1.32 0 0 0-.69-1.22Z" data-name="Layer 1"></path></g></svg> 