<?xml version="1.0" encoding="UTF-8"?> <svg xmlns="http://www.w3.org/2000/svg" viewBox="0 0 236.27 36"><g data-name="Layer 2"><path d="m3.35 4.55-.05.25a1.3 1.3 0 0 1-.65.8 2 2 0 0 1-1.17.4C.49 6 0 5.53 0 4.59a1.9 1.9 0 0 1 .76-1.2 4.26 4.26 0 0 1 2-1 9.18 9.18 0 0 0 1.83-.55 5.52 5.52 0 0 1 1.7-.41.56.56 0 0 0 .37.19.42.42 0 0 0 .42-.21q.12-.21.54-.12h.12L9 1l.38.14A.4.4 0 0 0 9.62 1a.94.94 0 0 1 .32-.13h.37l.45-.1a2.51 2.51 0 0 0 .61-.21h.4a8 8 0 0 0 1.46-.18 8.59 8.59 0 0 1 1.55-.26 7.1 7.1 0 0 0 .77-.07h.29a.75.75 0 0 1 .36.14.73.73 0 0 0 .3.14c.06 0 .5-.09 1.31-.28H18l1 .18a1.7 1.7 0 0 1 .57-.23 1.11 1.11 0 0 1 .82.33l.45-.19h.23a3.21 3.21 0 0 0 .42 0h.19a1.48 1.48 0 0 1 .35 0 .12.12 0 0 0 .09 0 1.29 1.29 0 0 0 .38 0h.3l1 .23h.42a.81.81 0 0 1 .29.14l.25-.05a5.57 5.57 0 0 0 .85.44A2.13 2.13 0 0 1 26 .82a2.43 2.43 0 0 1 .46.28l.68.33.19-.09a3.79 3.79 0 0 1 .68.37l.18.4a6.73 6.73 0 0 1 .64.37 1.69 1.69 0 0 0 .27.54v.19a1.56 1.56 0 0 0 .37.34c.24.2.36.34.36.43s0 .14-.05.33v.05a1.27 1.27 0 0 0 .17.3 1.23 1.23 0 0 1 .16.61l-.05.33.05.31-.24 1.57a1.32 1.32 0 0 0-.28.45.54.54 0 0 1-.35.34.94.94 0 0 0-.46.48.84.84 0 0 1-.5.48 1.72 1.72 0 0 0-.62.41.92.92 0 0 1-.67.3l-2.52.75-.28-.1a1.35 1.35 0 0 1-1.24.68 5.89 5.89 0 0 0-.94.17l-.47.11h-.38l-.86.16a2 2 0 0 0-.59.18 1 1 0 0 1-.47.1l-.63.33a.23.23 0 0 1-.15.05.37.37 0 0 1-.23-.05l-.33-.09a.89.89 0 0 0-.34.16.48.48 0 0 1-.29.12l-.27-.28-.45.38a4.46 4.46 0 0 0-.75.21 1.21 1.21 0 0 0-.4-.16l-.82.35-.47-.14v.14a1.23 1.23 0 0 0-.67.23 1.09 1.09 0 0 1-.57.24.58.58 0 0 1-.36-.19.26.26 0 0 1-.18-.09 1.18 1.18 0 0 0-.36.34 1.17 1.17 0 0 1-.51.34l-.57-.17s-.14.13-.44.25-.46.21-.47.29l-.24.33c-.11.26-.19.48-.25.65a1.14 1.14 0 0 1-.24.41 1.62 1.62 0 0 0-.26.53 2.9 2.9 0 0 1-.42.82v.28a2.36 2.36 0 0 1-.42.43l-.54 1a1.1 1.1 0 0 0-.23.5c0 .23.21.46.63.68l2.4 2.12.4.24-.09.42a.69.69 0 0 0 .23.12c.1 0 .14-.07.14-.21h.14s.11.07.24.21l.26.14c.11.11.31.29.61.54s.44.42.44.51v.19h.14a.26.26 0 0 1 .14-.09 1.62 1.62 0 0 1 .51.28l.31.14a10 10 0 0 1 1.14.91 3.5 3.5 0 0 0 .58.53 2.44 2.44 0 0 1 .62.67l2.7 2q3.38 2.54 3.8 3.38a1 1 0 0 0 .45.28 3.8 3.8 0 0 1 1 .79A3.5 3.5 0 0 1 25 34v.82c0 .06-.08.14-.23.24l-.31.28a1.63 1.63 0 0 1-1.05.63 2.29 2.29 0 0 1-1.62-.49h-.35q-.37 0-.42-.66l-.09-.3a3.44 3.44 0 0 1-1.79-1.2l-1.33-1.24-.77-.9a7 7 0 0 0-1.28-1.23 4 4 0 0 1-.87-.77 3.45 3.45 0 0 0-.84-.75 4.65 4.65 0 0 1-1.12-1.19c-.39-.55-.61-.84-.65-.88-.71-.37-1-.79-1-1.24a2.44 2.44 0 0 0-.68-.19c-.19-.2-.3-.31-.35-.32a.35.35 0 0 1-.12-.07l.05-.38a2.16 2.16 0 0 1-1-.53l-.75-.85a8.22 8.22 0 0 0-.8-.83 1 1 0 0 1-.37-.46c0-.11-.16-.24-.44-.4a1.9 1.9 0 0 1-.35.45.91.91 0 0 0-.28.37l-.1.14a1 1 0 0 0-.33.73 1.49 1.49 0 0 0-.44 1l-1.09 2.38-.18.84-.14 1.5q-.08.63-.54.63l-.47.05A3.53 3.53 0 0 0 2 29c-.43 0-.81-.51-1.1-1.37a2.36 2.36 0 0 0-.27-.47 1 1 0 0 1-.22-.58A2.33 2.33 0 0 1 .55 26l.09-.54a8.38 8.38 0 0 1 .59-1.34l1.24-2.36.61-.92a3 3 0 0 0 .26-.71 2.13 2.13 0 0 1 .43-.88 1.1 1.1 0 0 0 .29-.52c0-.18-.14-.37-.43-.56s-.45-.37-.48-.54l-.1-.23c-.82-.49-1.24-1-1.24-1.64 0-.33.42-.74 1.24-1.23a7.65 7.65 0 0 1 1.68-.84 3.15 3.15 0 0 0 .85-.32l.4-.1.33-.27a5.8 5.8 0 0 1 .69-.21c.27-.06.51-.38.7-1a2.21 2.21 0 0 1 .53-1 13.51 13.51 0 0 0 .63-1.45 4.75 4.75 0 0 1 .27-.43 4.66 4.66 0 0 0 .46-1.13c.15-.52.26-.78.32-.78a1.3 1.3 0 0 0 .38-.1l-.24-.63c0-.06.07-.16.19-.28a1.47 1.47 0 0 1-.33-1c0-.61.43-.92 1.29-.92a2.52 2.52 0 0 1 .93.42c.47.27.72.47.75.59a2.43 2.43 0 0 0 .31.6 1.38 1.38 0 0 1 .26.69 1.7 1.7 0 0 1-.31 1.2 3.25 3.25 0 0 0-.63 1.24l-.63 1.78-.1.45-.12.18.59-.14c.13-.34.66-.54 1.6-.58l1.48-.47h.44l1.44-.4.68-.09H18l.28-.05a.56.56 0 0 1 .19.19h.09c.17 0 .27-.11.28-.31s.25-.3.68-.3a.22.22 0 0 1 .18.11c.06.08.11.12.18.12a.47.47 0 0 1 .39-.3 1.7 1.7 0 0 1 .46-.11h.37a.2.2 0 0 1 0-.14c0-.14.47-.29 1.43-.45a1.71 1.71 0 0 0 .59-.3 5.73 5.73 0 0 1 1.48-.61L26 7c.58-.19 1-.75 1.2-1.69l-.42-.63h-.35a1.66 1.66 0 0 0-.33-.22 2.29 2.29 0 0 1-.54-.43L25.29 4a3.09 3.09 0 0 0-.76-.29 2.59 2.59 0 0 1-.93-.48.8.8 0 0 1-.23.09 3.73 3.73 0 0 1-.52-.23l-.63-.28h-.54c-.09-.11-.17-.17-.23-.17h-.24a.52.52 0 0 1-.23.05h-.4a1.66 1.66 0 0 1-.38-.24h-.77l-.42.1a.6.6 0 0 1-.31-.19l-.42.09-.42-.18-.63.09a.63.63 0 0 0-.23-.11l-1.88.19a.18.18 0 0 1-.16-.1.43.43 0 0 0-.23-.14 1.26 1.26 0 0 1-.39-.2 2 2 0 0 1-1 .28l-.72-.1H12.38L12 2.16a.2.2 0 0 1 0 .14l-.35-.1-1.29.24h-.24a.76.76 0 0 0-.27.07.76.76 0 0 1-.27.07L9 2.48l-.4.1-.6-.05-.5.35h-.07a.35.35 0 0 1-.21-.08.4.4 0 0 0-.17-.08l-.35.07-.28-.07c-.06 0-.19.15-.37.44h-.1l-.36-.09c-.06 0-.18.11-.37.33a8.31 8.31 0 0 0-.87.35 1.52 1.52 0 0 1-.56.56Zm1.56 11.08h-.59a1.15 1.15 0 0 0-.5.27c-.25.18-.37.3-.37.37s.19.23.55.52a2 2 0 0 0 .7.44c.28 0 .61-.64 1-1.93l-.23.1-.28-.05c-.19.16-.28.25-.28.28Zm22.84 4.2.49-.4a.59.59 0 0 0 .61-.59 1.24 1.24 0 0 1 .77-.93l.28-.4a6.41 6.41 0 0 1 1.92-.92 1.62 1.62 0 0 0 .54-.42.16.16 0 0 1 .1-.05l.37.1a2.62 2.62 0 0 0 .79-.17 3.07 3.07 0 0 1 .92-.16l1-.05a1.22 1.22 0 0 1 .39.14 1.57 1.57 0 0 0 .72.14 1.26 1.26 0 0 1 .94.47 1.39 1.39 0 0 1 .44.87 2.14 2.14 0 0 1-.75 1.48 2.87 2.87 0 0 1-1.19.84 3.24 3.24 0 0 1-.61.51 1.68 1.68 0 0 0-.44.32.58.58 0 0 1-.36.23.17.17 0 0 1-.14-.06.17.17 0 0 0-.14-.06c-.25 0-.52.3-.82.91h-.42a1.26 1.26 0 0 0-.51.56.47.47 0 0 1-.49.3q-.87.87-1.17.87a1.86 1.86 0 0 1-.33-.09.74.74 0 0 0-.19.49c0 .19-.12.3-.37.33l-.31.28h-.23l-.47.49a1.34 1.34 0 0 0-.72.24c0 .19-.08.42-.14.71a4.3 4.3 0 0 0-.1.48c0 .46.42.68 1.24.68l1.13-.16a1.54 1.54 0 0 0 .83-.24 1.65 1.65 0 0 1 .83-.23 1.56 1.56 0 0 0 .43-.09l.23.09a1.52 1.52 0 0 1 .61-.63 1.45 1.45 0 0 1 .7-.28l.24-.14a.58.58 0 0 1 .28-.38l.19-.16a.5.5 0 0 1 .35-.19H35.61a1.15 1.15 0 0 1 .78-.71.94.94 0 0 0 .64-.34.55.55 0 0 1 .45-.28.92.92 0 0 0 .56-.32 2.43 2.43 0 0 1 .55-.5 4.24 4.24 0 0 0 .45-.36.4.4 0 0 1 .23-.11c.09 0 .14.07.14.21s0 .21.09.21.09 0 .09-.1a.74.74 0 0 0 0-.23v-.16a.46.46 0 0 1 .37-.47l1.04-.82c0-.33.12-.52.27-.58a1 1 0 0 0 .34-.18.38.38 0 0 1 .25-.11c.21 0 .31.12.31.35l-.12.61.12.63a.65.65 0 0 1-.22.39 1.64 1.64 0 0 0-.34.75c-.08.34-.18.52-.31.55h-.14a2 2 0 0 1-.67.53.75.75 0 0 0-.39.29l-.79.92a5 5 0 0 0-.4.42c-.11.12-.2.19-.26.19l-.19-.19h-.09c-.09 0-.25.1-.29.28a1.08 1.08 0 0 1-.25.5 2.46 2.46 0 0 0-.91.6l-.15.05h-.42c-.2 0-.34.15-.42.46a.72.72 0 0 1-.67.53 1.36 1.36 0 0 0-.78.28.69.69 0 0 1-.22.09 3.29 3.29 0 0 0-.65.38l-2 .7a1 1 0 0 1-.31.12l-.65.09a.38.38 0 0 1-.29-.19c-.09-.12-.15-.19-.18-.19l-.43.15a3.22 3.22 0 0 1-.89.14 1 1 0 0 1-.51-.17 3.21 3.21 0 0 0-.45-.23c-.45 0-.77-.35-1-1.06l-.28.05A6.84 6.84 0 0 1 26 26a.78.78 0 0 0-.45-.27.42.42 0 0 1-.3-.46 1.77 1.77 0 0 1 .45-1.42 1.44 1.44 0 0 0 .51-.55l.32-1.22a1.17 1.17 0 0 0 .24-.47l.54-1c.08-.07.22-.34.44-.78Zm5-1.41-.29.14c-.06 0-.24.17-.55.41a5.47 5.47 0 0 1-.89.59 2.53 2.53 0 0 0-.89 1.16 5.45 5.45 0 0 0-.46 1.08c0 .09.05.14.15.14l.79-.35a3.48 3.48 0 0 0 .83-.54 10.28 10.28 0 0 1 1.12-.8l.19-.19a1.58 1.58 0 0 1 .43-.34 2 2 0 0 0 .57-.48l.24-.09a1.66 1.66 0 0 1 .81-.77c.27-.1.41-.19.41-.29s-.15-.28-.45-.28a1.25 1.25 0 0 0-.56.24h-.54a1.62 1.62 0 0 0-.52.28ZM46.9 8.2l.33-.09.23-.23.21.09h.05a2.33 2.33 0 0 0 1-.22 4.53 4.53 0 0 1 .73-.32 1.92 1.92 0 0 0 .37-.14.21.21 0 0 1 .11 0h.38c.13 0 .3-.22.51-.67a2.54 2.54 0 0 1 .71-1 3.14 3.14 0 0 0 .8-1.15 2.47 2.47 0 0 0 .21-.36c.08-.17.14-.25.19-.25a.64.64 0 0 0 .56-.44c.47-.55.85-.83 1.14-.83s.67.38.83 1.13l.23.89a2.9 2.9 0 0 1-.12.34 1.54 1.54 0 0 0-.1.63 1.52 1.52 0 0 1 0 .43.88.88 0 0 0 0 .24c0 .13.13.19.4.19a1.4 1.4 0 0 0 .51-.19h.14a.8.8 0 0 0 .4.15 7.1 7.1 0 0 0 .67-.24 5.41 5.41 0 0 1 .78-.26 3 3 0 0 0 .57-.18H59l.19.07a1 1 0 0 0 .38-.2 2.33 2.33 0 0 1 1.12-.25l.31-.16h.1c.51 0 .77.23.77.68a1.14 1.14 0 0 1-.22.49 3.25 3.25 0 0 0-.36.8l-1.06 1.36a1.45 1.45 0 0 1-1.08.7c-.06 0-.26-.21-.59-.63 0 0 0-.05-.09-.05a1.46 1.46 0 0 0-.49.09 1.23 1.23 0 0 1-.42.1c-.05 0-.47.12-1.25.35l-.56.09a3 3 0 0 0-.44.1l-1.2.23a2.12 2.12 0 0 0-1 1.15s-.08.1-.24.21l-1 1.92a.94.94 0 0 0-.68.61l-.1.14a.79.79 0 0 0-.47.3 2.31 2.31 0 0 1-.4.38l-.42.64c-.17.21-.34.45-.52.71a2.88 2.88 0 0 0-.37.82 1.6 1.6 0 0 1-.19.51.33.33 0 0 0-.07.25l-.07.19a.87.87 0 0 0-.28.63l.09.38c-.22.75-.33 1.15-.33 1.19a2.41 2.41 0 0 0 .05.26v.14a3.09 3.09 0 0 1-.38 1.29l.05.38-.14 1.05a4.08 4.08 0 0 0 .14.77c-.06.07-.09.11-.09.14a2.32 2.32 0 0 0 .68 1.45 3.64 3.64 0 0 1 .69 2.45 1.64 1.64 0 0 1-.07.41 2.61 2.61 0 0 0-.09.58 1 1 0 0 1-.37.62.9.9 0 0 1-.57.31c-.83 0-1.45-.6-1.86-1.81a10.34 10.34 0 0 1-.61-2.32v-.91l-.14-.47.14-2.06-.09-.5.54-2v-.73a1.89 1.89 0 0 1 .32-.37s0-.05-.09-.05-.22.09-.37.28a3.45 3.45 0 0 1-.59.54l-.19.33a.47.47 0 0 0-.19-.09 5.2 5.2 0 0 0-.77 1.1 1 1 0 0 0-.78.56.84.84 0 0 1-.77.49h-.1c-.06.45-.28.68-.65.68h-.1c-.23.54-.47.79-.72.78a1.53 1.53 0 0 1-1.16 1 .88.88 0 0 1-.41.42 1.73 1.73 0 0 0-.38.26.33.33 0 0 1-.21.12c-.21 0-.31-.22-.31-.66a.77.77 0 0 1 .15-.41.76.76 0 0 0 .16-.32s-.08-.12-.24-.28c0-.48.13-.79.38-.91a1.33 1.33 0 0 0 .56-.54.71.71 0 0 1 .47-.4c.23-.08.35-.18.35-.3s.2-.33.61-.66a5.28 5.28 0 0 0 .89-.86c.19-.24.35-.36.47-.36l.1-.09c0-.39.17-.59.44-.59l.24-.14v-.19l.14-.09h.19l.12-.09a1.15 1.15 0 0 1 .55-.92A12.34 12.34 0 0 0 46 15a10.66 10.66 0 0 0 1.5-1.93 8.18 8.18 0 0 1 .6-1.14 3 3 0 0 0 .48-1.35.73.73 0 0 0-.14-.18l-1 .49c0-.05-.15-.12-.46-.21a1.82 1.82 0 0 0-.52.42c-.11.14-.2.21-.26.21l-.33-.05-1 .12a4.81 4.81 0 0 0-2.08.56l-1 .28h-.21a1.23 1.23 0 0 0-.57.24l-.54-.05a2.67 2.67 0 0 1-1.1.4l-.28-.05-2.39.66a5.78 5.78 0 0 0-1.27 1h-.18c-.16 0-.34-.18-.55-.53a1.91 1.91 0 0 1-.32-.95c0-1.55 1.33-2.44 4-2.69l1-.38.26.09h.09a1 1 0 0 0 .45-.17 6.16 6.16 0 0 1 1.36-.43l1-.26h.3a1 1 0 0 0 .46-.1 2.13 2.13 0 0 1 .89-.27 4.34 4.34 0 0 0 .81-.2l.38-.09a1.23 1.23 0 0 0 .39-.17 1.51 1.51 0 0 1 .76-.16 1.87 1.87 0 0 1 .37.09ZM57.81 18l.35-.09.14-.31a6 6 0 0 0 1.64-1.29.57.57 0 0 1 .21-.19 1.42 1.42 0 0 0 .36-.32 2.79 2.79 0 0 1 2.06-.87c.94 0 1.43.57 1.5 1.71l.14.35a10.34 10.34 0 0 1 .53 1.34 6.41 6.41 0 0 1 .34 1.24 2.45 2.45 0 0 1-.4 1.27 8.63 8.63 0 0 0-1.57 1.75l-.24.17a4.57 4.57 0 0 1-.49.84c-.31.11-.47.23-.47.35v.43a.4.4 0 0 1-.1.18 4.83 4.83 0 0 0-.3.54l-.18.28a.93.93 0 0 0-.19.39 1.77 1.77 0 0 1-.27.53.68.68 0 0 0-.18.37c0 .24.31.35.92.35a1.53 1.53 0 0 0 .35-.14l.33.1a.59.59 0 0 0 .23-.16 1.51 1.51 0 0 1 .58-.24 2.25 2.25 0 0 0 .67-.28 2.92 2.92 0 0 1 .71-.33 2.43 2.43 0 0 0 .78-.46 2.88 2.88 0 0 1 .74-.46 2 2 0 0 0 .68-.43 5.24 5.24 0 0 1 .72-.55A10.43 10.43 0 0 0 68.66 23a2.72 2.72 0 0 1 .77-.5s.17-.2.41-.62.52-.62.84-.62a.43.43 0 0 1 .49.47.68.68 0 0 1-.24.49v.52a.36.36 0 0 1 0 .21c0 .06-.06.15-.18.28a.91.91 0 0 0-.24.48.56.56 0 0 1-.45.39c-.09.34-.21.54-.36.58a1.93 1.93 0 0 0-.62.47 10 10 0 0 1-1.13.94 8.57 8.57 0 0 0-1 .83c-.18.2-.31.29-.37.29a.46.46 0 0 1-.18-.09.55.55 0 0 0-.19-.09c-.1 0-.16.11-.19.32l-.09.24a2.26 2.26 0 0 1-.35.19l-.15-.05h-.09c-.19 0-.28.07-.28.21l.14.23v.05c0 .22-.12.33-.37.33a4.85 4.85 0 0 0-1.5.87l-.68.14-.57.3a1 1 0 0 0-.35-.16l-.37.12h-.68s-.3-.15-.86-.47a2 2 0 0 1-1-.93 5.69 5.69 0 0 0-.43-.95 1.8 1.8 0 0 1-.25-.67 5.08 5.08 0 0 1 .18-1.61 4.48 4.48 0 0 0 .24-.71A1.16 1.16 0 0 1 59 24a2 2 0 0 0 .36-.87 10.74 10.74 0 0 1 .94-1.67 2.23 2.23 0 0 0 .4-.75l.3-.42a1.18 1.18 0 0 0 .14-.36c.06-.21.14-.34.24-.37a1.33 1.33 0 0 0 .18-.42c0-.45-.2-.68-.61-.68-.07 0-.16.08-.25.25a1.51 1.51 0 0 1-.65.48 2.55 2.55 0 0 0-.62.35 1.66 1.66 0 0 1-.5.29 1.75 1.75 0 0 0-.67.55l-.4.19c-.12.3-.23.46-.33.49l-.86.24s-.11.11-.24.28a.62.62 0 0 1-.54.26 5.37 5.37 0 0 0-.56.65 2.09 2.09 0 0 0-.49.19l-.47.12a2 2 0 0 0-.41.44 1 1 0 0 1-.84.31c-.23 0-.35-.19-.35-.56a2.26 2.26 0 0 1 .81-1.83 2.87 2.87 0 0 1 1.19-.73c.25 0 .4-.12.46-.28a.8.8 0 0 1 .46-.39 2.8 2.8 0 0 0 .85-.68 2.4 2.4 0 0 1 1-.71Zm25 8.93-1.1 1a.28.28 0 0 0-.19-.09c-.15 0-.35.14-.57.42s-.39.42-.48.42l-.24-.05a3.19 3.19 0 0 1-.84.52 3 3 0 0 0-.62.26 2.07 2.07 0 0 1-.66.21.7.7 0 0 0-.48.2 1.6 1.6 0 0 1-.92.17h-.37a1.54 1.54 0 0 1-.4.14.61.61 0 0 1-.4-.2.75.75 0 0 0-.46-.23.77.77 0 0 1-.5-.32 1.47 1.47 0 0 0-.48-.42 1.06 1.06 0 0 1-.37-.33l-.32-.28a2.78 2.78 0 0 1-.78-1 2.86 2.86 0 0 1-.37-1.17V25.04a1.55 1.55 0 0 0 .23-.4v-.75l.59-1.89c0-.07 0-.18-.18-.3a1 1 0 0 1-.47.42.46.46 0 0 0-.32.33c-.06.17-.15.26-.27.26l-.29-.1a2.93 2.93 0 0 0-.21.48.59.59 0 0 1-.57.44q-.42 0-.42-.33l.05-.42-.15-.59a2 2 0 0 1 .38-.74 1.48 1.48 0 0 1 .69-.63.9.9 0 0 0 .54-.44 3.38 3.38 0 0 1 1-.88 1.19 1.19 0 0 0 .72-.61 2.56 2.56 0 0 1 .86-.42 1.63 1.63 0 0 0 .8-.49 6.5 6.5 0 0 1 1.6-1 5.18 5.18 0 0 1 1.93-.67 1.78 1.78 0 0 0 .52-.1l.61-.19a3 3 0 0 0 .59-.26 1 1 0 0 1 .49-.17l.68.23a6.32 6.32 0 0 1 .92.3 1.74 1.74 0 0 0 .48.2 6.94 6.94 0 0 1 .89.41 1 1 0 0 1 .46 1 4.24 4.24 0 0 0-.4.63c0 .06.18.15.54.28a10 10 0 0 0 .56.91l.26.82.05 1.93-.05.18c-.17.16-.26.26-.26.31l.07.47-.18.65a.58.58 0 0 1-.24.4.41.41 0 0 0-.21.24l-.14.18c0 .05-.1.19-.2.41a1.56 1.56 0 0 1-.34.53.78.78 0 0 0-.23.45.54.54 0 0 1-.24.37.94.94 0 0 0-.27.25.62.62 0 0 1-.29.19Zm-7.28.61.09.54h.37l.12.05a4.4 4.4 0 0 0 .7.1 1.75 1.75 0 0 0 1.16-.37 1.26 1.26 0 0 1 .69-.36c.17 0 .31-.12.43-.35s.19-.35.22-.35h.33l.09-.05a.79.79 0 0 1 .48-.77 1.45 1.45 0 0 0 .68-.63 1.74 1.74 0 0 1 .46-.58 1 1 0 0 0 .35-.53L82 24a.51.51 0 0 0 .09-.35l.44-.85a3.92 3.92 0 0 0 .15-.91.84.84 0 0 0-.51-.77 1.16 1.16 0 0 1-.5-1.1 1.29 1.29 0 0 1 .55-1c.37-.31.55-.49.55-.55a.13.13 0 0 0-.14-.14 2.59 2.59 0 0 0-.54.19c-.11.21-.66.5-1.66.86a4.59 4.59 0 0 0-.54-.23c-.09 0-.19.09-.28.28a1.25 1.25 0 0 1-.28.4H79s-.14.1-.31.3a.8.8 0 0 1-.65.31l-.28.28a1 1 0 0 1-.47.77l-.29.31c-.15.18-.36.4-.61.65L76 23.51a2.6 2.6 0 0 0-.25.91.84.84 0 0 1-.32.29.48.48 0 0 0-.25.39.79.79 0 0 0 .17.24.48.48 0 0 1 .16.28l-.09.3-.1.87Zm35.53-23v.25a1.36 1.36 0 0 1-.66.8 2 2 0 0 1-1.17.4c-1 0-1.48-.47-1.48-1.41a2 2 0 0 1 .76-1.2 4.26 4.26 0 0 1 2-1 9.18 9.18 0 0 0 1.83-.55 5.52 5.52 0 0 1 1.7-.41.58.58 0 0 0 .38.19.44.44 0 0 0 .42-.21c.08-.14.25-.18.54-.12h.11l1.28-.28.37.14a.4.4 0 0 0 .22-.09.94.94 0 0 1 .32-.14h.37l.45-.1a2.34 2.34 0 0 0 .61-.21h.4A8 8 0 0 0 121 .38a8.59 8.59 0 0 1 1.55-.26 7.1 7.1 0 0 0 .77-.07h.3a.72.72 0 0 1 .35.14.73.73 0 0 0 .3.14c.06 0 .5-.09 1.31-.28h.15l1 .23a1.7 1.7 0 0 1 .56-.23 1.11 1.11 0 0 1 .82.33l.45-.19h.23a2.87 2.87 0 0 0 .42 0h.19a1.48 1.48 0 0 1 .35 0 .14.14 0 0 0 .1 0 1.26 1.26 0 0 0 .37 0h.31l1 .23h.43a.9.9 0 0 1 .28.14l.26-.05a4.9 4.9 0 0 0 .84.44 2.13 2.13 0 0 1 .35-.09 2.32 2.32 0 0 1 .47.28l.68.33.18-.09a3.79 3.79 0 0 1 .68.37l.19.4c.18.09.39.22.63.37a1.75 1.75 0 0 0 .28.54v.19s.12.15.36.34.36.34.36.43 0 .14-.05.33v.05a1.27 1.27 0 0 0 .17.3 1.13 1.13 0 0 1 .16.61l-.05.33.05.31-.23 1.57a1.36 1.36 0 0 0-.29.45.52.52 0 0 1-.35.34.94.94 0 0 0-.46.48.81.81 0 0 1-.5.48 1.72 1.72 0 0 0-.62.41.92.92 0 0 1-.67.3l-2.51.75-.28-.1a1.38 1.38 0 0 1-1.25.68 6.09 6.09 0 0 0-.94.17l-.47.11h-.37l-.87.16a2.08 2.08 0 0 0-.59.18.94.94 0 0 1-.47.1l-.63.33a.2.2 0 0 1-.14.05.38.38 0 0 1-.24-.05l-.33-.09a.89.89 0 0 0-.34.16.48.48 0 0 1-.29.12l-.28-.24-.45.38a4.46 4.46 0 0 0-.75.21 1.14 1.14 0 0 0-.4-.16l-.82.35-.47-.14v.14a1.23 1.23 0 0 0-.67.23 1 1 0 0 1-.57.24.54.54 0 0 1-.35-.19.26.26 0 0 1-.19-.09 1.14 1.14 0 0 0-.35.34 1.21 1.21 0 0 1-.52.34l-.56-.17s-.15.13-.45.25-.45.21-.47.29l-.23.33c-.11.26-.2.48-.26.65a1 1 0 0 1-.24.41 1.45 1.45 0 0 0-.25.53 3 3 0 0 1-.43.82v.28a2.88 2.88 0 0 1-.43.43l-.54 1a1.23 1.23 0 0 0-.23.5c0 .23.21.46.63.68l2.49 2.1.4.24-.09.42a.69.69 0 0 0 .24.12c.09 0 .14-.07.14-.21h.14s.11.07.23.21l.26.14c.11.11.31.29.61.54s.44.42.44.51v.19h.14a.26.26 0 0 1 .14-.09 1.62 1.62 0 0 1 .51.28l.31.14a9.12 9.12 0 0 1 1.14.91 4 4 0 0 0 .58.53 2.65 2.65 0 0 1 .63.67l2.69 2q3.38 2.54 3.8 3.38a1 1 0 0 0 .45.28 3.8 3.8 0 0 1 1 .79 3.32 3.32 0 0 1 .79 1v.82c0 .06-.07.14-.23.24l-.3.28a1.67 1.67 0 0 1-1.06.63 2.29 2.29 0 0 1-1.62-.49h-.35q-.37 0-.42-.66l-.09-.3a3.41 3.41 0 0 1-1.78-1.2l-1.34-1.24-.77-.9a7 7 0 0 0-1.28-1.23 4 4 0 0 1-.87-.77 3.45 3.45 0 0 0-.84-.75 4.64 4.64 0 0 1-1.11-1.19 9.81 9.81 0 0 0-.66-.88c-.7-.37-1-.79-1-1.24a2.44 2.44 0 0 0-.68-.19 1.26 1.26 0 0 0-.35-.32l-.12-.07v-.38a2.07 2.07 0 0 1-1-.53l-.75-.85a9.37 9.37 0 0 0-.81-.83c-.23-.2-.35-.35-.36-.46s-.17-.24-.45-.4a1.9 1.9 0 0 1-.35.45.91.91 0 0 0-.28.37l-.1.14a1 1 0 0 0-.32.73 1.45 1.45 0 0 0-.45 1l-1 2.39-.19.86-.14 1.48q-.08.63-.54.63l-.46.05a3.78 3.78 0 0 0-.88-.18c-.46-.05-.83-.51-1.13-1.37a2.36 2.36 0 0 0-.27-.47 1 1 0 0 1-.22-.58 2.33 2.33 0 0 1 .14-.61l.1-.54a7.78 7.78 0 0 1 .58-1.34l1.24-2.36.61-.92a3 3 0 0 0 .26-.71 2.26 2.26 0 0 1 .43-.88 1 1 0 0 0 .29-.52c0-.18-.14-.37-.43-.56s-.45-.37-.48-.54l-.09-.23c-.83-.49-1.24-1-1.24-1.64 0-.33.41-.74 1.24-1.23a7.44 7.44 0 0 1 1.67-.84 3.34 3.34 0 0 0 .86-.32l.39-.1.33-.28a5.8 5.8 0 0 1 .69-.17c.28-.06.51-.38.71-1a2.23 2.23 0 0 1 .52-1 13.51 13.51 0 0 0 .63-1.45l.27-.43a4.66 4.66 0 0 0 .46-1.13q.23-.78.33-.78a1.35 1.35 0 0 0 .37-.1l-.23-.63A.52.52 0 0 1 118 6a1.46 1.46 0 0 1-.32-1c0-.61.42-.92 1.28-.92a2.53 2.53 0 0 1 .94.42c.46.27.71.47.75.59a2.3 2.3 0 0 0 .3.6 1.38 1.38 0 0 1 .26.69 1.65 1.65 0 0 1-.31 1.2 3.25 3.25 0 0 0-.63 1.24l-.63 1.78-.1.45-.11.18.58-.14c.13-.34.66-.54 1.6-.58l1.48-.47h.45l1.43-.4.68-.09h.14l.28-.05a.49.49 0 0 1 .19.19h.09c.18 0 .27-.11.29-.31s.24-.3.68-.3a.22.22 0 0 1 .17.11.24.24 0 0 0 .18.12A.47.47 0 0 1 128 9a1.78 1.78 0 0 1 .46-.11h.38a.16.16 0 0 1 0-.14c0-.14.48-.29 1.43-.45a1.84 1.84 0 0 0 .64-.35 5.56 5.56 0 0 1 1.48-.61l1.37-.34c.57-.19 1-.75 1.19-1.69l-.42-.63h-.35a1.66 1.66 0 0 0-.33-.22 2.77 2.77 0 0 1-.54-.43L133 4a3.09 3.09 0 0 0-.76-.29 2.59 2.59 0 0 1-.93-.48.8.8 0 0 1-.23.09 4.43 4.43 0 0 1-.52-.23l-.56-.25h-.54c-.09-.11-.17-.17-.23-.17h-.24a.52.52 0 0 1-.23.05h-.4a1.5 1.5 0 0 1-.37-.24h-.78l-.42.1c-.06 0-.16-.06-.3-.19l-.43.09-.42-.18-.63.09a.63.63 0 0 0-.28-.14l-1.88.19a.19.19 0 0 1-.16-.1.44.44 0 0 0-.22-.14 1 1 0 0 1-.34-.18 2 2 0 0 1-1 .28l-.72-.1H120.17l-.42-.09a.2.2 0 0 1 0 .14l-.36-.1-1.29.24h-.24a.76.76 0 0 0-.27.07.67.67 0 0 1-.27.07h-.51l-.4.1-.56-.05-.49.35h-.1a.35.35 0 0 1-.26-.13.44.44 0 0 0-.16-.08l-.35.07-.29-.07c-.06 0-.18.15-.37.44h-.09l-.35-.09c-.07 0-.19.11-.38.33a9.29 9.29 0 0 0-.87.35 1.45 1.45 0 0 1-.56.56Zm1.56 11.08h-.59a1.15 1.15 0 0 0-.5.27c-.24.18-.36.3-.36.37s.18.23.55.52a1.9 1.9 0 0 0 .69.44c.28 0 .62-.64 1-1.93l-.24.1-.28-.05c-.15.17-.24.26-.24.29Zm22.84 4.2.49-.4a.59.59 0 0 0 .61-.59 1.24 1.24 0 0 1 .77-.93l.29-.4a6.15 6.15 0 0 1 1.92-.92 1.67 1.67 0 0 0 .53-.42.19.19 0 0 1 .1-.05l.37.1a2.56 2.56 0 0 0 .79-.17 3.13 3.13 0 0 1 .92-.16l1-.05a1.28 1.28 0 0 1 .38.14 1.6 1.6 0 0 0 .72.14 1.3 1.3 0 0 1 .95.47 1.42 1.42 0 0 1 .43.87 2.14 2.14 0 0 1-.75 1.48 2.87 2.87 0 0 1-1.19.84 3.24 3.24 0 0 1-.61.51 1.65 1.65 0 0 0-.43.32c-.15.15-.27.23-.37.23a.17.17 0 0 1-.14-.06.16.16 0 0 0-.14-.06c-.25 0-.52.3-.81.91h-.43a1.26 1.26 0 0 0-.51.56.47.47 0 0 1-.49.3q-.87.87-1.17.87l-.33-.09a.79.79 0 0 0-.19.49c0 .19-.12.3-.37.33l-.3.28h-.24l-.47.49a1.34 1.34 0 0 0-.72.24c0 .19-.08.42-.14.71a4.3 4.3 0 0 0-.1.48c0 .46.42.68 1.25.68l1.12-.16a1.52 1.52 0 0 0 .83-.24 1.66 1.66 0 0 1 .84-.23 1.58 1.58 0 0 0 .42-.09l.23.09a1.52 1.52 0 0 1 .61-.63 1.45 1.45 0 0 1 .7-.28l.24-.14a.61.61 0 0 1 .28-.38l.19-.16a.5.5 0 0 1 .35-.19H143.31a1.15 1.15 0 0 1 .79-.71.93.93 0 0 0 .63-.34.57.57 0 0 1 .46-.28.89.89 0 0 0 .55-.32 2.67 2.67 0 0 1 .55-.5c.22-.16.37-.28.46-.36a.38.38 0 0 1 .22-.11c.09 0 .14.07.14.21s0 .21.09.21.1 0 .1-.1a.8.8 0 0 0 0-.23v-.16a.46.46 0 0 1 .37-.47l1.06-.68c0-.33.12-.52.27-.58a1 1 0 0 0 .34-.18.38.38 0 0 1 .26-.11c.2 0 .3.12.3.35l-.12.61.12.63a.65.65 0 0 1-.22.39 1.75 1.75 0 0 0-.34.75c-.08.34-.18.52-.31.55h-.14a2 2 0 0 1-.67.53.69.69 0 0 0-.38.29l-.8.92a5 5 0 0 0-.4.42c-.11.12-.19.19-.26.19l-.18-.19h-.1c-.1 0-.25.1-.29.28a1.08 1.08 0 0 1-.25.5 2.46 2.46 0 0 0-.91.6l-.14.05h-.43c-.2 0-.34.15-.42.46a.72.72 0 0 1-.67.53 1.39 1.39 0 0 0-.78.28.53.53 0 0 1-.21.09 3.26 3.26 0 0 0-.66.38l-2 .7a1 1 0 0 1-.31.12l-.65.09a.35.35 0 0 1-.28-.19c-.1-.12-.16-.19-.19-.19l-.42.15a3.28 3.28 0 0 1-.89.14 1.06 1.06 0 0 1-.52-.17 3.21 3.21 0 0 0-.45-.23c-.45 0-.77-.35-1-1.06l-.28.05a7.4 7.4 0 0 1-.63-1.66.78.78 0 0 0-.45-.27.42.42 0 0 1-.3-.46 1.77 1.77 0 0 1 .45-1.42c.31-.24.48-.42.51-.55l.33-1.22a1.2 1.2 0 0 0 .23-.47l.54-1c.1-.27.24-.54.46-.98Zm5-1.41-.28.14a4.5 4.5 0 0 0-.55.41 6 6 0 0 1-.9.59 2.6 2.6 0 0 0-.89 1.16 5.09 5.09 0 0 0-.45 1.08.12.12 0 0 0 .14.14l.79-.35a3.75 3.75 0 0 0 .84-.54 9.11 9.11 0 0 1 1.11-.8l.19-.19a1.58 1.58 0 0 1 .43-.34 2.27 2.27 0 0 0 .58-.48l.23-.09a1.66 1.66 0 0 1 .81-.77c.27-.1.41-.19.41-.29s-.15-.28-.45-.28a1.25 1.25 0 0 0-.56.24h-.54a1.62 1.62 0 0 0-.51.28Zm9.42.87.09-.19a1 1 0 0 0 1-.63l.1-.09a3.14 3.14 0 0 0 1.2-.65 3.53 3.53 0 0 1 1.32-.67l1-.3a3.14 3.14 0 0 1 .86.42 1.7 1.7 0 0 1 .71 1.59 2.76 2.76 0 0 1-.47 1.57V21.25a.78.78 0 0 0-.4.63V22.75l-.65 1.43c-.27.12-.4.23-.4.33s.07.13.2.22a.41.41 0 0 1 .2.36 6.47 6.47 0 0 1-.14 1 .14.14 0 0 0 .09.05h.1a.55.55 0 0 1 .37-.28l.23-.17a.75.75 0 0 1 .17-.37h.28c.12 0 .19-.13.19-.38a5.67 5.67 0 0 1 1-1.2c.69-.71 1.1-1.17 1.25-1.37a2.36 2.36 0 0 1 .48-.51.76.76 0 0 0 .31-.41.75.75 0 0 1 .27-.4 1.82 1.82 0 0 0 .36-.38 1.31 1.31 0 0 1 .4-.37 1.92 1.92 0 0 0 .53-.56 6.47 6.47 0 0 1 1.13-1.12 1.52 1.52 0 0 0 .33-.43 2.26 2.26 0 0 1 .69-.62 5.32 5.32 0 0 0 1-.77 2.16 2.16 0 0 1 1.56-.46 2.1 2.1 0 0 1 1.83 1.83.86.86 0 0 1-.12.5l-.38.6q-.27.42-.51.42l-.42-.14a1.3 1.3 0 0 1-.91.45l-.45-.09a1.78 1.78 0 0 1-.68.3.6.6 0 0 0-.43.28.61.61 0 0 1-.39.29 1.26 1.26 0 0 0-.47.23l-.37.18a1.6 1.6 0 0 1-1 .87 3.4 3.4 0 0 0-.51.66s-.08.11-.23.19a1.24 1.24 0 0 0-.45.42c-.16.2-.28.3-.38.3h-.21a1.35 1.35 0 0 0-.28.66c-.06.29-.32.5-.77.61a1 1 0 0 0-.29.34 1.24 1.24 0 0 1-.53.45 1.54 1.54 0 0 1-.61.87l-.28.49a1.34 1.34 0 0 1-.46.46 1.56 1.56 0 0 0-.36.27s-.12.24-.31.62a1.53 1.53 0 0 1-.62.74 2.11 2.11 0 0 0-.67.53c-.22.24-.4.36-.56.36-.55 0-1.13-.45-1.76-1.34a5 5 0 0 1-.94-1.68 4.72 4.72 0 0 1 .37-2.05 4.43 4.43 0 0 0 .43-1.41 4.52 4.52 0 0 1 .26-1.16l.14-.73.19-.33a1.55 1.55 0 0 0 .28-.63l.12-.37c0-.28-.09-.42-.26-.42a.68.68 0 0 0-.57.42l-.09.09-.61-.14c-.11 0-.21.24-.3.73a.6.6 0 0 1-.47.3c-.25 0-.53.3-.82.75l-.12.09a1.35 1.35 0 0 0-.28.1c-.22.36-.38.54-.47.54s-.19-.09-.29-.27a1.1 1.1 0 0 0-.39-.41.41.41 0 0 1-.24-.35c0-.36.36-.82 1.06-1.39a.71.71 0 0 0 .28-.35q0-.16.63-.21c.04-.06.14-.22.3-.52Zm15.31 2 .37-.33h.14c.11 0 .28-.12.5-.35l.23-.1a2.06 2.06 0 0 1 .82-.82l.38-.28a.83.83 0 0 1 .27-.16 2.45 2.45 0 0 0 .56-.46c.26-.26.46-.38.62-.38a1.34 1.34 0 0 1 .38 0 1.47 1.47 0 0 1 .56-.55 2.32 2.32 0 0 0 .68-.64l.31-.14a2.66 2.66 0 0 0 .66-.48 1 1 0 0 1 .77-.3 2.17 2.17 0 0 1 1.42.69 1.92 1.92 0 0 1 .73 1.33l-.39 1.83c-.27 1.34-.57 2-.9 2.11l-.09.49c-.22.15-.33.28-.33.37l.14.57c0 .07-.08.19-.25.35V25.17q0 .26-.33.42a.56.56 0 0 0 .14.09 1 1 0 0 1 .63-.14l.38.05.51-.52a2 2 0 0 0 .46-.22 6.67 6.67 0 0 1 1-.45l3-2.4q.63-.63 1-.63c.23 0 .35.15.35.44a1.61 1.61 0 0 1-.2.86 4.9 4.9 0 0 0-.36.82 1.53 1.53 0 0 1-.39.67 1.54 1.54 0 0 0-.36.41 2.92 2.92 0 0 1-.76.64 6.92 6.92 0 0 0-1.06.86 5.31 5.31 0 0 1-.71.62l-1 .73-.14.23a2.23 2.23 0 0 1-.43.2 2.58 2.58 0 0 0-.69.39l-.43.23a1 1 0 0 1-.45.12.77.77 0 0 0-.55.27c-.16.16-.28.24-.38.24h-.35l-.47.14a1.67 1.67 0 0 1-1-.48 1.37 1.37 0 0 1-.58-1V27.29a2.46 2.46 0 0 0-.14-.48 3.18 3.18 0 0 1-.14-.44l.05-.32-.05-.14a2.1 2.1 0 0 1 .09-.8 1.19 1.19 0 0 0 .14-.46c0-.19.07-.35.1-.48l.12-.59a.71.71 0 0 1 .23-.37c0-.13.09-.34.19-.63l.09-.43.24-.32a.92.92 0 0 0 .22-.51 1.65 1.65 0 0 1 .24-.67 1.63 1.63 0 0 0 .22-.42.26.26 0 0 0-.29-.28 2.23 2.23 0 0 0-.58.38l-.42-.14s-.12.07-.26.23-.07.11-.21.14a.68.68 0 0 0-.4.35l-.19.05-.3-.14h-.1c-.15 0-.25.17-.28.51a1.21 1.21 0 0 1-.68.5l-.51.14a.62.62 0 0 0-.38.42 1.31 1.31 0 0 1-.47.6 1.11 1.11 0 0 1-.47.27c-.44 0-.65-.25-.65-.73l.18-1.1ZM175.3 9.54l-.14-.92v-.14c0-.73.25-1.14.75-1.21a10.32 10.32 0 0 0 1-.31 1.63 1.63 0 0 1 .87.74 2 2 0 0 1 .46 1.14.67.67 0 0 1-.07.21 1.83 1.83 0 0 0-.09.62 1.07 1.07 0 0 1-.46.79 1.18 1.18 0 0 1-1.76-.11 1.56 1.56 0 0 1-.56-.81Zm6.47 9.75.09-.19a1 1 0 0 0 1-.63l.1-.09a3.14 3.14 0 0 0 1.2-.65 3.47 3.47 0 0 1 1.31-.67l1-.3a3.29 3.29 0 0 1 .86.42 1.7 1.7 0 0 1 .71 1.59 2.83 2.83 0 0 1-.47 1.57v.73l-.05.19a.79.79 0 0 0-.39.63V22.76l-.65 1.43c-.27.12-.4.23-.4.33s.06.13.2.22a.41.41 0 0 1 .2.36 6.47 6.47 0 0 1-.14 1 .14.14 0 0 0 .09.05h.09a.6.6 0 0 1 .38-.28l.23-.17a.67.67 0 0 1 .17-.37h.28c.12 0 .19-.13.19-.38a5.67 5.67 0 0 1 1-1.2c.68-.71 1.1-1.17 1.25-1.37a2.36 2.36 0 0 1 .48-.51.82.82 0 0 0 .31-.41.75.75 0 0 1 .27-.4 2.12 2.12 0 0 0 .36-.38 1.31 1.31 0 0 1 .4-.37 1.79 1.79 0 0 0 .52-.56 6.63 6.63 0 0 1 1.14-1.12 1.73 1.73 0 0 0 .33-.43 2.15 2.15 0 0 1 .69-.62 5.32 5.32 0 0 0 1-.77 2.16 2.16 0 0 1 1.56-.46 2.1 2.1 0 0 1 1.92 1.79.86.86 0 0 1-.12.5l-.39.6c-.17.28-.34.42-.5.42l-.42-.14a1.3 1.3 0 0 1-.91.45l-.45-.09a1.78 1.78 0 0 1-.68.3.58.58 0 0 0-.43.28.61.61 0 0 1-.39.29 1.19 1.19 0 0 0-.47.23l-.37.18a1.62 1.62 0 0 1-1 .87 3.89 3.89 0 0 0-.52.66s-.07.11-.22.19a1.34 1.34 0 0 0-.46.42c-.15.2-.28.3-.37.3h-.3a1.35 1.35 0 0 0-.28.66c-.06.29-.32.5-.78.61a1.1 1.1 0 0 0-.28.34 1.21 1.21 0 0 1-.54.45 1.48 1.48 0 0 1-.6.87l-.29.49a1.21 1.21 0 0 1-.45.46 2.21 2.21 0 0 0-.37.27s-.11.24-.3.62a1.59 1.59 0 0 1-.62.74 2.11 2.11 0 0 0-.67.53.89.89 0 0 1-.56.36c-.55 0-1.14-.45-1.76-1.34a4.84 4.84 0 0 1-.94-1.68 4.58 4.58 0 0 1 .37-2.05 4.43 4.43 0 0 0 .43-1.41 4.52 4.52 0 0 1 .26-1.16l.14-.73.19-.33a1.7 1.7 0 0 0 .28-.63l.11-.37c0-.28-.08-.42-.25-.42a.68.68 0 0 0-.57.42l-.09.09-.61-.14c-.11 0-.21.24-.3.73a.6.6 0 0 1-.47.3c-.25 0-.53.3-.82.75l-.12.09a1.15 1.15 0 0 0-.28.1c-.22.36-.38.54-.47.54s-.19-.09-.3-.27a1.08 1.08 0 0 0-.38-.41.41.41 0 0 1-.24-.35c0-.36.35-.82 1.06-1.39a.77.77 0 0 0 .28-.35q0-.16.63-.21a1.51 1.51 0 0 0 .36-.49Zm33.22 4 .37-.33a.39.39 0 0 0 .43-.31c0-.22.21-.38.5-.51a1.85 1.85 0 0 0 .8-.76q.38-.57.78-.57c.09 0 .2.07.32.23a.66.66 0 0 1 .19.38 3.25 3.25 0 0 1-.47 1.59l-.09.66-.17.3a1 1 0 0 0-.45.4 1.72 1.72 0 0 1-.55.51l-.24.33a1.08 1.08 0 0 0-.69.54.65.65 0 0 1-.49.42 1.27 1.27 0 0 0-.69.47 3.28 3.28 0 0 1-.56.21v.24a1.76 1.76 0 0 1-.74.37 4.9 4.9 0 0 0-.75.27.86.86 0 0 1-.34.13 1.86 1.86 0 0 1-.82-.18 2.7 2.7 0 0 0-.77-.22.51.51 0 0 1-.17-.3 1 1 0 0 0-.23-.44 1.15 1.15 0 0 1-.21-.73l.09-.45a.39.39 0 0 0-.12-.23.49.49 0 0 1-.11-.24.2.2 0 0 1 0-.14.16.16 0 0 0 0-.14.66.66 0 0 0 0-.26.74.74 0 0 1 0-.23l.14-1.15c0-.09 0-.14-.1-.14s-.17.08-.34.23a.78.78 0 0 1-.57.24 1 1 0 0 0-.3.58 2.43 2.43 0 0 1-.47.43l-.1.14c0 .11-.15.2-.35.27a.85.85 0 0 0-.42.27l-.23.23-.45-.05a3.49 3.49 0 0 0-.26.41 1.84 1.84 0 0 1-.54.6L204 27.84a9 9 0 0 1-.82.47l-.14.14a6.17 6.17 0 0 1-2.65 1.25 3.91 3.91 0 0 1-1.48-.36c-.56-.23-.86-.51-.91-.84l-.23-1a1.61 1.61 0 0 1-.22-.92 1 1 0 0 1 .05-.37v-.14l-.05-.77c0-.19.15-.29.45-.29l-.05-.63a3.53 3.53 0 0 1 .41-.74 3.5 3.5 0 0 1 .55-.73l.24-.31a.74.74 0 0 1 .33-.6 3.25 3.25 0 0 0 .56-.64 2.93 2.93 0 0 1 .8-.73l.7-.7a6.87 6.87 0 0 1 1.78-1.31 2.54 2.54 0 0 0 .58-.47 2.71 2.71 0 0 1 1-.62 7 7 0 0 0 1.07-.51 1.89 1.89 0 0 1 .84-.3h.19a10.75 10.75 0 0 0 1.24-.59h.14a1.43 1.43 0 0 1 .45.19l.38-.19a.52.52 0 0 1 .23-.05c1 0 1.51.68 1.6 2 0 .28.11.42.23.42s.38-.28.67-.85a1.87 1.87 0 0 1 1.84-.86c.68 0 1 .43 1 1.29a4 4 0 0 1-1.33 2.92 1.81 1.81 0 0 0-.14.43l-.33 1a.65.65 0 0 1-.2.39.75.75 0 0 0-.2.43v.59l-.09.66a.76.76 0 0 0 .16.58 1.9 1.9 0 0 0 1.09-.62q.33-.43.48-.48l.23-.09a2.2 2.2 0 0 1 .55-.57Zm-7.78 0a1.06 1.06 0 0 1 .57-.78 1.2 1.2 0 0 0 .58-.56 10.83 10.83 0 0 0 1.27-1.17c.56-.56.84-.9.84-1s0-.07-.1-.07l-.19.12h-.87l-.33-.17-.3.05-.47-.09a1.33 1.33 0 0 0-.65.15 4.77 4.77 0 0 1-1 .34 3.83 3.83 0 0 0-1.37.64 1.79 1.79 0 0 1-.89.46 3.56 3.56 0 0 1-1.1 1 1.08 1.08 0 0 0-.73.82c-.4.33-.61.51-.61.56l-.16.4a1.53 1.53 0 0 1-.47.27.53.53 0 0 0-.33.49 1.27 1.27 0 0 1-.31.7.93.93 0 0 0-.27.51c0 .76.15 1.15.44 1.15a2.63 2.63 0 0 0 .79-.25 2.89 2.89 0 0 0 .69-.34 1.21 1.21 0 0 1 .37-.19l.45-.23a.45.45 0 0 1 .21-.12.4.4 0 0 0 .24-.15 1.2 1.2 0 0 1 .42-.28 1.18 1.18 0 0 0 .47-.41c.26-.16.69-.4 1.28-.73l.5-.37a1.81 1.81 0 0 0 .63-.4 1.18 1.18 0 0 1 .4-.32Zm12.82.49v-.16a2.43 2.43 0 0 1 0-.52 2 2 0 0 1-.14-.68 5.92 5.92 0 0 1 .24-.65l.21-.73a3.59 3.59 0 0 1 .19-.45 2 2 0 0 1-.14-.42 1.33 1.33 0 0 1 .3-.89 2.89 2.89 0 0 0 .52-1l.46-1.43.78-1.88a2.55 2.55 0 0 1 .22-.37l.33-.53.36-.64.24-.05a.28.28 0 0 0 .09-.19 3.06 3.06 0 0 0-.09-.37l.82-1.36.49-1a1.16 1.16 0 0 1 .51-.52 2.76 2.76 0 0 1 .82-1.05 3.52 3.52 0 0 1 .52-1h.44a2 2 0 0 1 .24-.49l.05-.47c0 .09 0 .07.11-.08a7.91 7.91 0 0 0 .35-.83l.64-.73.18-.33a6.54 6.54 0 0 0 .38-.63 1.27 1.27 0 0 0 .59-.52l.49-.39c0-.18.15-.56.56-1.15a3.09 3.09 0 0 0 .73-.42l.33-.1a1.14 1.14 0 0 1 .58-1.12l.28-.19a2.12 2.12 0 0 1 .42-.19l.17-.05a2.13 2.13 0 0 1 .7-.06 2.25 2.25 0 0 1 1.57.65 1.92 1.92 0 0 1 .71 1.46 1 1 0 0 1-.35.68l-.1.19c-.22.86-.37 1.29-.47 1.29a.42.42 0 0 0-.25.14 5.06 5.06 0 0 1-.1.86c-.28 0-.42.4-.42 1.06a1.86 1.86 0 0 1-.34.48 2.5 2.5 0 0 0-.46.94c-.11.4-.22.59-.35.59h-.26l.07.36a.92.92 0 0 1-.31.64 1.33 1.33 0 0 0-.39.67 1.89 1.89 0 0 1-.55.85l-.24.38a2.86 2.86 0 0 1-.37.49 2 2 0 0 0-.4.8l-.61 1.12c-.42.77-.74 1.13-1 1.1a8.12 8.12 0 0 1-.28 1.06.71.71 0 0 1-.33.26.8.8 0 0 0-.4.41 1.25 1.25 0 0 1-.3.43l-.42.87a1 1 0 0 0-.54.61c-.25.06-.41.27-.47.63a1.65 1.65 0 0 0-.24.42l-.82.82a1.45 1.45 0 0 0-.68 1 .55.55 0 0 1-.61.57 3.11 3.11 0 0 1-1.17-.35 2.41 2.41 0 0 1-.33.73l.09.63c0 .08-.12.57-.37 1.48a1.34 1.34 0 0 1 .18.49v.52l.11.63c.08.51.27.77.57.77l.56.1a3.58 3.58 0 0 0 .58-.36l.87-.46h.05a.93.93 0 0 0 .37.1c.16 0 .24-.13.24-.38v-.3a.51.51 0 0 1 .34-.28.86.86 0 0 0 .36-.22.51.51 0 0 1 .26-.16h.23c.24 0 .35-.27.35-.82a.85.85 0 0 0 .24-.19h.18c.12 0 .26-.15.41-.45a2.72 2.72 0 0 1 .31-.55 1.63 1.63 0 0 0 .59-.15c.5-.9.88-1.35 1.15-1.35h.14a1.24 1.24 0 0 0 .43-.67.45.45 0 0 1 .24-.39 1.69 1.69 0 0 0 .36-.23c.11-.1.18-.14.21-.14.23 0 .35.08.35.25l-.07.66.16.7a.83.83 0 0 1-.19.37.94.94 0 0 0-.2.59c0 .46-.08.7-.24.73a.58.58 0 0 0-.38.32 1.5 1.5 0 0 1-.51.49 1.49 1.49 0 0 0-.54.64l-.39.1-.24.14a1.69 1.69 0 0 1-.6.89 2.64 2.64 0 0 0-.78 1c-.05 0-.07 0-.07.05l-.38-.05a.92.92 0 0 1-.42.45.66.66 0 0 0-.35.27 1.12 1.12 0 0 1-.5.34.78.78 0 0 0-.46.33.37.37 0 0 1-.28.21.58.58 0 0 0-.35.17.46.46 0 0 1-.28.15H224.7a1.25 1.25 0 0 1-.66.28.83.83 0 0 0-.44.09 1.19 1.19 0 0 0-.44-.14 2.54 2.54 0 0 1-.67-.23 3.27 3.27 0 0 1-.49.09c-.26 0-.6-.26-1-.78a2.52 2.52 0 0 1-.61-1.54 3 3 0 0 0-.27-.36 1.17 1.17 0 0 1-.27-.74V24.33c.24 0 .35-.06.35-.1Zm4.75-6.21.5-.28a2.12 2.12 0 0 1 .61-.9c.34-.35.58-.53.72-.53h.19a.78.78 0 0 1 .07-.33 1.1 1.1 0 0 0 .07-.44c0-.1.21-.35.63-.78l.19-.42a1.89 1.89 0 0 1 1.05-1c.22-.45.39-.68.5-.68h.18a1.46 1.46 0 0 1 .38-.64l.09-.14V11a2 2 0 0 1 .32-.39 2.84 2.84 0 0 0 .46-.63 1.09 1.09 0 0 1 .38-.46.86.86 0 0 0 .34-.58l.38-.05a.9.9 0 0 1 0-.4v-.23c.08-.19.35-.68.82-1.48l.38-.87a.54.54 0 0 1 .2-.34.77.77 0 0 0 .2-.57l.18-.77q0-.54-.18-.54a1.87 1.87 0 0 1-.44.23c-.13 0-.26.33-.38.84-.47.11-.74.34-.81.67a1.41 1.41 0 0 1-.58.86l-.16.28a1 1 0 0 1-.45.54 2.81 2.81 0 0 0-.75 1c-.78 1.08-1.21 1.66-1.29 1.73l-.23.28H228a4.12 4.12 0 0 1 .09.42.36.36 0 0 1-.14.27.89.89 0 0 0-.21.32 1.62 1.62 0 0 1-.28.43 2.37 2.37 0 0 0-.39.8 1.39 1.39 0 0 1-.31.64l-.33-.05c-.21.13-.31.25-.31.38l.07.33a.35.35 0 0 1-.13.22 1.44 1.44 0 0 0-.24.5 5.65 5.65 0 0 1-.59 1.14 7.41 7.41 0 0 0-.74 1.62 2.78 2.78 0 0 1-.52 1.09.2.2 0 0 0 .14 0c.29 0 .49-.23.67-.63Z" data-name="Layer 1"></path></g></svg> 