<?xml version="1.0" encoding="UTF-8"?> <svg xmlns="http://www.w3.org/2000/svg" viewBox="0 0 142.07 33.47"><g data-name="Layer 2"><path d="M52.85 7.21a12.72 12.72 0 0 1-.32 2.67c-.22 1-.43 1.45-.63 1.45a.21.21 0 0 1-.23-.23.68.68 0 0 1 0-.21 9.8 9.8 0 0 0 .63-3.54 6.5 6.5 0 0 0-1.76-4.74 6.22 6.22 0 0 0-4.6-1.79 15 15 0 0 0-8 2.55c2.31 1.85 3.47 3.84 3.47 6A6 6 0 0 1 39.2 14a10.46 10.46 0 0 1-5.78 2.38 4.46 4.46 0 0 1 2.44 4.08 18.77 18.77 0 0 1-1.24 5.42 12.31 12.31 0 0 0-.82 3.75 3.15 3.15 0 0 0 1 2.38 3.39 3.39 0 0 0 2.46 1 4.69 4.69 0 0 0 2.84-1 1 1 0 0 1 .43-.19c.12 0 .18.06.18.19s-.44.57-1.31.92a6.54 6.54 0 0 1-2.28.52 4.77 4.77 0 0 1-3.78-1.8 6.63 6.63 0 0 1-1.52-4.44 24.85 24.85 0 0 1 1.69-6.78 6.8 6.8 0 0 0 .42-2.11 2.37 2.37 0 0 0-.93-1.85c-1 .09-1.57.14-1.71.14-1.54 0-2.32-.2-2.32-.59s.39-.37 1.17-.37a7.52 7.52 0 0 1 2.77.53 7.24 7.24 0 0 0 4.59-2.58 7.66 7.66 0 0 0 1.78-5 6.72 6.72 0 0 0-1.78-4.4l-.23-.31q-5.15 3.84-9.71 13.41a36.37 36.37 0 0 1-5.06 8.34 21.08 21.08 0 0 1-6.45 4.62 20.34 20.34 0 0 1-8.74 2.34 9 9 0 0 1-5.22-1.44A4.26 4.26 0 0 1 0 27.56a3.09 3.09 0 0 1 .73-2.06 2.16 2.16 0 0 1 1.71-.87c1 0 1.43.53 1.43 1.6a2 2 0 0 1-.48 1.36 1.52 1.52 0 0 1-1.19.56c-.81 0-1.2-.42-1.17-1.27q0-.51-.09-.51c-.25 0-.38.41-.38 1.24a3.8 3.8 0 0 0 1.91 3.23 8.42 8.42 0 0 0 4.82 1.29 13.48 13.48 0 0 0 9.29-3.79 24.31 24.31 0 0 0 3.12-3.4q1.39-1.87 6.13-9.1a63.91 63.91 0 0 1 5.58-7.15 33.28 33.28 0 0 1 5.46-5.13Q33.21.44 26.13.45a23.81 23.81 0 0 0-17.2 7.14q-6 5.87-6 11a5.36 5.36 0 0 0 1.69 4.21 6.46 6.46 0 0 0 4.57 1.55q4.71 0 9.74-4.52T24 11q0-3.4-3.49-3.4c-2.33 0-4.82 1.3-7.49 3.9s-4 5-4 7.32a2.09 2.09 0 0 0 .56 1.45 1.75 1.75 0 0 0 1.32.61c.27 0 .4.07.4.21s-.15.19-.45.19a2.32 2.32 0 0 1-1.9-1 4 4 0 0 1-.78-2.5q0-3.65 4-7.12A12.51 12.51 0 0 1 20.4 7.2c2.68 0 4 1.24 4 3.73q0 4.55-5.13 9.18T9.14 24.77a7 7 0 0 1-5.21-1.95 7.07 7.07 0 0 1-2-5.24Q2 11 9.46 5.47A27.4 27.4 0 0 1 26 0a20.63 20.63 0 0 1 11.59 3.07A15.73 15.73 0 0 1 45.89.4a6.89 6.89 0 0 1 5 1.87 6.63 6.63 0 0 1 1.96 4.94Zm4.33 17c0 .25-.47.84-1.39 1.76C54.42 27.35 53.15 28 52 28a2.84 2.84 0 0 1-1.29-.28q-3.09 4.38-5.82 4.38a3.06 3.06 0 0 1-2.41-1.1 4.14 4.14 0 0 1-1-2.77q0-3.61 4.74-7 3.33-2.36 5.48-2.36c1.35 0 2 .72 2 2.15 0 1.8-.95 4-2.84 6.5a2.12 2.12 0 0 0 1.06.28 4.56 4.56 0 0 0 2.46-1 8.64 8.64 0 0 0 2.31-2.36c.17-.22.29-.33.37-.33s.12.05.12.11Zm-3.81-3.15c0-1.27-.57-1.9-1.71-1.9-1.43 0-3.16 1.36-5.21 4.08s-3.07 5-3.07 6.87c0 1.08.52 1.61 1.55 1.61q2.53 0 5.53-4.17a2.3 2.3 0 0 1-.68-1.55 4 4 0 0 1 .92-2.37 2.43 2.43 0 0 1 1.78-1.22c.25 0 .42.16.51.47a4.37 4.37 0 0 0 .38-1.81Zm29.92 3.18a4.22 4.22 0 0 1-.24.37L82 26q-4.41 6.12-6.52 6.12a2.26 2.26 0 0 1-1.81-.82 3.11 3.11 0 0 1-.67-2.1 5.6 5.6 0 0 1 .89-2.83c.11-.19.68-1 1.71-2.51 1.31-1.88 2-3.1 2-3.68a.85.85 0 0 0-1-1q-3.11 0-10.62 12.7a7.16 7.16 0 0 0-1.29-.09 12.71 12.71 0 0 0-1.64.09l3.33-5.27q3.25-5.2 3.26-6.38t-.87-1.05q-1.29 0-4.22 3.7a63.62 63.62 0 0 0-5.81 9 8.66 8.66 0 0 0-1.38-.09 12.37 12.37 0 0 0-1.6.09l3.35-5.27c2.32-3.63 3.47-5.87 3.47-6.73 0-.47-.18-.7-.54-.7-.77 0-2.35 1.68-4.77 5-.15.21-.28.32-.37.32a.13.13 0 0 1-.1-.14 21.26 21.26 0 0 1 2.2-2.85q2.12-2.64 3.27-2.64a1.59 1.59 0 0 1 1.29.71 2.74 2.74 0 0 1 .54 1.7 8.42 8.42 0 0 1-1.38 3.77q4.22-6.18 6.28-6.18a2 2 0 0 1 1.61.79 3.09 3.09 0 0 1 .64 2A7.06 7.06 0 0 1 70 25.05q4.45-6.18 6.68-6.18a2.1 2.1 0 0 1 1.7.86 3.3 3.3 0 0 1 .69 2.11 7 7 0 0 1-1.14 3.4l-2 3a5.35 5.35 0 0 0-1.15 2.58.85.85 0 0 0 1 1q1.82 0 6.05-5.91l.73-1 .42-.52c.08-.16.16-.23.23-.23s.08-.01.08.09Zm16.52 0c0 .33-1.14 1.84-3.43 4.55-1.84 2.21-3.3 3.34-4.38 3.34a2.19 2.19 0 0 1-1.76-.81 3 3 0 0 1-.68-2 6.13 6.13 0 0 1 .75-2.75A31.21 31.21 0 0 1 86.74 31a3.62 3.62 0 0 1-2.41 1.15 2.56 2.56 0 0 1-2.09-1.06 4.22 4.22 0 0 1-.84-2.69q0-4.5 6.35-8a10.06 10.06 0 0 1 4.5-1.54 1.26 1.26 0 0 1 1.45 1.4 4.23 4.23 0 0 1-.18 1.06l1.19-2.28a5.54 5.54 0 0 0 1.24.17 10.58 10.58 0 0 0 1.64-.17l-4.14 6.87c-1.44 2.41-2.16 4-2.16 4.76s.3 1.1.91 1.1 1.63-.71 3-2.15a39.4 39.4 0 0 0 4.2-5.29c.09-.16.18-.23.26-.23a.12.12 0 0 1 .15.15Zm-6.46-3.88c0-.77-.35-1.15-1-1.15-1.44 0-3.33 1.4-5.66 4.22s-3.51 5.08-3.51 6.82c0 1 .46 1.52 1.36 1.52q1.62 0 5.6-5.37c2.13-2.92 3.21-4.94 3.21-6.03Zm25.28 3.88c0 .33-1.14 1.84-3.4 4.55-1.86 2.22-3.33 3.33-4.39 3.33a2.23 2.23 0 0 1-1.77-.82 2.93 2.93 0 0 1-.72-2 4.44 4.44 0 0 1 .44-2 33.94 33.94 0 0 1 2.26-3.57c1.26-1.88 1.9-3.07 1.9-3.59s-.34-1-1-1q-3.42 0-10.55 12.7l-1.4-.01a12.68 12.68 0 0 0-1.55.09l3.66-5.79c2.08-3.31 3.11-5.38 3.11-6.21 0-.47-.19-.7-.58-.7q-1.2 0-4.72 5.05-.21.3-.33.33a.14.14 0 0 1-.14-.14.31.31 0 0 1 .09-.19l.45-.59q3.59-4.82 4.83-4.81a1.66 1.66 0 0 1 1.36.72 2.76 2.76 0 0 1 .57 1.74A8.64 8.64 0 0 1 105 25.5a41 41 0 0 1 4.25-5.23 4.26 4.26 0 0 1 2.76-1.4 2.17 2.17 0 0 1 1.73.84 3.15 3.15 0 0 1 .71 2.09c0 1-.72 2.65-2.16 4.8s-2.2 3.61-2.2 4.22a.85.85 0 0 0 1 1q2.08 0 7.2-7.44c.08-.16.16-.23.24-.23a.12.12 0 0 1 .1.1Zm11.62 0a27.47 27.47 0 0 1-3.3 3.94q-3.61 3.94-6.15 3.94a3.73 3.73 0 0 1-2.8-1.24 4.2 4.2 0 0 1-1.18-3 6.81 6.81 0 0 1 1.6-4.08 13.83 13.83 0 0 1 4.29-3.63 7.92 7.92 0 0 1 3.7-1.31c1.15 0 1.73.68 1.73 2.06a5.69 5.69 0 0 1-1.14 3.24c-.72 1.08-1.45 1.62-2.16 1.62a.93.93 0 0 1-1.06-1.05c0-.83.72-1.6 2.16-2.3a2.46 2.46 0 0 0 1.66-2.16c0-.7-.38-1.05-1.15-1.05-1.29 0-2.89 1.29-4.78 3.87s-2.83 4.74-2.83 6.49c0 1.47.68 2.2 2.06 2.2q3.24 0 8.77-7.3c.21-.25.36-.37.45-.37s.13.06.13.14Zm11.82 0a2.63 2.63 0 0 1-.43.61l-1 1.26q-4.86 6-8.33 6a3.62 3.62 0 0 1-2.76-1.11 4.18 4.18 0 0 1-1.11-3q0-4.21 5.88-7.43a11.34 11.34 0 0 1 5-1.68 2.19 2.19 0 0 1 1.44.5 1.56 1.56 0 0 1 .6 1.23c0 1.13-.74 2.08-2.2 2.87a28.93 28.93 0 0 1-7.36 2.22 7.82 7.82 0 0 0-1.6 4c0 1.34.73 2 2.18 2q3.72 0 9.08-7.23c.19-.25.35-.37.47-.37s.14.08.14.16Zm-2-4.35c0-.5-.28-.75-.82-.75-.83 0-1.92.58-3.27 1.72a24 24 0 0 0-4 4.47 18.42 18.42 0 0 0 5.72-2.45c1.6-1.02 2.39-2.02 2.39-2.96Z" data-name="Layer 1"></path></g></svg> 