<svg width="10" height="9" viewBox="0 0 10 9" fill="none" xmlns="http://www.w3.org/2000/svg">
<path d="M3.22188 5.85946H3.22235C3.22274 5.85946 3.22313 5.85938 3.2235 5.85938H8.53517C8.59883 5.85937 8.66075 5.83863 8.71157 5.80029C8.7624 5.76195 8.79935 5.70811 8.81685 5.6469L9.98873 1.54533C10.0012 1.50174 10.0034 1.45585 9.99506 1.41128C9.98678 1.36671 9.96826 1.32466 9.94097 1.28846C9.91366 1.25225 9.87832 1.22288 9.83772 1.20265C9.79713 1.18242 9.7524 1.17188 9.70705 1.17188H2.54623L2.33682 0.229414C2.32235 0.164342 2.28612 0.106149 2.23412 0.0644401C2.18212 0.0227316 2.11745 9.00329e-07 2.05078 0L0.292969 0C0.131153 0 0 0.131153 0 0.292969C0 0.454786 0.131153 0.585938 0.292969 0.585938H1.8158C1.85287 0.752931 2.81799 5.09606 2.87354 5.34591C2.56219 5.48126 2.34375 5.79173 2.34375 6.15235C2.34375 6.63696 2.73805 7.03126 3.22266 7.03126H8.53517C8.69699 7.03126 8.82814 6.90011 8.82814 6.73829C8.82814 6.57647 8.69699 6.44532 8.53517 6.44532H3.22266C3.06114 6.44532 2.92969 6.31388 2.92969 6.15235C2.92969 5.99106 3.06069 5.85983 3.22188 5.85946ZM9.31865 1.75782L8.31415 5.27345H3.45766L2.67641 1.75782H9.31865ZM2.92969 7.91017C2.92969 8.3948 3.32399 8.78908 3.8086 8.78908C4.29321 8.78908 4.68751 8.39478 4.68751 7.91017C4.68751 7.42556 4.29321 7.03126 3.8086 7.03126C3.32399 7.03126 2.92969 7.42556 2.92969 7.91017ZM3.8086 7.6172C3.97012 7.6172 4.10157 7.74864 4.10157 7.91017C4.10157 8.07169 3.97012 8.20314 3.8086 8.20314C3.64708 8.20314 3.51563 8.07169 3.51563 7.91017C3.51563 7.74864 3.64708 7.6172 3.8086 7.6172ZM7.07032 7.91017C7.07032 8.3948 7.46462 8.78908 7.94923 8.78908C8.43384 8.78908 8.82814 8.39478 8.82814 7.91017C8.82814 7.42556 8.43384 7.03126 7.94923 7.03126C7.46462 7.03126 7.07032 7.42556 7.07032 7.91017ZM7.94923 7.6172C8.11075 7.6172 8.2422 7.74864 8.2422 7.91017C8.2422 8.07169 8.11075 8.20314 7.94923 8.20314C7.78771 8.20314 7.65626 8.07169 7.65626 7.91017C7.65626 7.74864 7.78771 7.6172 7.94923 7.6172Z" fill="black"/>
</svg>
