<?xml version="1.0" encoding="UTF-8"?> <svg xmlns="http://www.w3.org/2000/svg" viewBox="0 0 138 48.94"><g data-name="Layer 2"><path d="M56.58 3.45A28.29 28.29 0 0 1 49.17 13a10.64 10.64 0 0 1-2.42 5.59A87.85 87.85 0 0 1 38 27.45q-4.62 4.28-7.88 8l-.59.64a48.93 48.93 0 0 0 .29-5.32 58.85 58.85 0 0 0-.45-7.64q-8.05 3.16-8.06 8.55a7.2 7.2 0 0 0 .91 3.24 2.47 2.47 0 0 1-2.51-2.77q0-2.71 2.63-5.58a20.64 20.64 0 0 1 6.91-4.78q-1-8.38-4.4-13.17-4.74-6.7-11.91-6.7a10.87 10.87 0 0 0-8.36 3.62 13 13 0 0 0-3.31 9.13A12.93 12.93 0 0 0 2.85 21a11.91 11.91 0 0 0 4.37 4.59 13.87 13.87 0 0 0 7.38 2.11 11.94 11.94 0 0 0 3.33-.49l.14.42A12.39 12.39 0 0 1 12.33 29a11.43 11.43 0 0 1-8.74-3.91A13.54 13.54 0 0 1 0 15.61 15.44 15.44 0 0 1 4.3 4.5 14.12 14.12 0 0 1 14.93 0a14.35 14.35 0 0 1 7.72 2.21 17.07 17.07 0 0 1 5.83 6.27 34.7 34.7 0 0 1 3.63 12.1 3.88 3.88 0 0 1 .54-.19l4.73-1.64a33 33 0 0 0 8.84-4.5l.47-.35a7 7 0 0 0-2-3.92 10.62 10.62 0 0 0-3.9-2.55 26.3 26.3 0 0 0-6.2-1.34L33.73 6a12.59 12.59 0 0 0 2.15-2.39q2.12.17 6.12.16 9.83 0 14.58-.32Zm-10.1 11.78a28.24 28.24 0 0 1-9.73 5.47L32.7 22l-.45.14c.11 1.22.16 2.67.16 4.36 0 2.09-.06 3.86-.18 5.3q1.47-1.57 3.3-3.28l2.39-2.28a62.25 62.25 0 0 0 6.14-6.38 13.35 13.35 0 0 0 2.42-4.63Zm7.24-9.82h-.77l-4.5.07-4.27.07h-1q5.47 2.3 5.9 6.3a18.54 18.54 0 0 0 4.64-6.44Zm4.45 10.18v.25q0 2.2-2.9 8.72l-1.74 3.94a19 19 0 0 0-1.43 3.87c0 .48.25.71.8.68a5.3 5.3 0 0 0 1.55-.5l.3.68a55.6 55.6 0 0 1-5.88 2.51 16 16 0 0 1 .71-4.06 62.92 62.92 0 0 1 2.59-6.18c1.69-3.69 2.55-5.84 2.58-6.47s-.17-.73-.61-.73a2.73 2.73 0 0 0-.8.17l-1 .35-.45.16-.23-.75.49-.16c1.74-.64 3.5-1.36 5.3-2.16Zm1.36-6a1 1 0 0 1 1.08 1.07 1.56 1.56 0 0 1-.48 1.11 1.51 1.51 0 0 1-1.09.49 1 1 0 0 1-1.1-1.08 1.54 1.54 0 0 1 .48-1.1 1.5 1.5 0 0 1 1.11-.49ZM73 32.23l.38.63a17.34 17.34 0 0 1-6.66 2.81q.49-3.87 4.55-11.74l1.5-2.93a6.18 6.18 0 0 0 .78-1.92c0-.42-.17-.63-.52-.63s-1.4.55-2.75 1.64a33.33 33.33 0 0 0-4 3.8 39.25 39.25 0 0 0-6.68 10.68 21.27 21.27 0 0 0-3.12 1.13q2.16-4.41 4.35-9.9t2.19-6.51c0-.56-.23-.84-.68-.84a7.43 7.43 0 0 0-1.52.35l-.26.07-.14-.75A45.28 45.28 0 0 0 66.4 16l.3-.14a3.64 3.64 0 0 1 0 .42q0 2.09-3.07 8.89l-.33.7.4-.45a53.22 53.22 0 0 1 7.09-6.9C73 16.87 74.7 16 75.91 16a1 1 0 0 1 1.15 1.17c0 .82-1 3.21-3.07 7.2q-3.67 7.13-3.68 8c0 .46.21.68.64.68a4 4 0 0 0 1.92-.77Zm15.92-16.11-.3.71h-3.31l-.19.4c-.29.62-1.1 2.45-2.41 5.48q-.79 1.86-2.25 5.11a17.45 17.45 0 0 0-1.71 4.8.9.9 0 0 0 1 1 6.85 6.85 0 0 0 3.4-1.45l.37.61a13.85 13.85 0 0 1-3.21 1.83 8.13 8.13 0 0 1-3 .75c-1.17 0-1.76-.46-1.76-1.39 0-.65.66-2.5 2-5.53L80 22.9c1.36-3.14 2.14-5 2.36-5.53l.24-.54h-3.05l.33-.71h.3a4.19 4.19 0 0 0 2.71-.63 11.87 11.87 0 0 0 1.88-3.56h.47a8.91 8.91 0 0 0 2.23-.28c-.17.45-.48 1.2-.92 2.23l-.7 1.69-.23.53ZM101.06 32l.42.61a18.59 18.59 0 0 1-6.72 2.9q.12-2.36 2.79-8.15a36.66 36.66 0 0 1-6.23 5.9q-3.19 2.36-5.07 2.35c-1.09 0-1.64-.7-1.64-2.09q0-3.54 3.16-7.65a25.37 25.37 0 0 1 8-6.76 21.74 21.74 0 0 1 10.73-3q.75 0 .75.57a5 5 0 0 1-.7 1.78 17.49 17.49 0 0 0-3.09-.28 16.24 16.24 0 0 0-12.36 5.56q-3.8 4.08-3.8 8.09c0 1.25.47 1.87 1.39 1.87s1.9-.67 3.37-2A24.8 24.8 0 0 0 96 27a23.34 23.34 0 0 0 3.26-7.69 2.42 2.42 0 0 1 1 2.25c0 1.51-.77 3.26-2.3 5.23a13 13 0 0 0 2.79-.66l-.19.4c-1.48 3.33-2.23 5.27-2.23 5.83s.21.67.64.64a6.31 6.31 0 0 0 2.09-1Zm17.09-4.85q-3 9.87-6.14 14.41a18.72 18.72 0 0 1-5.52 5.2 11.77 11.77 0 0 1-6.15 2.14 3.29 3.29 0 0 1-2-.6 1.85 1.85 0 0 1-.8-1.54 3.07 3.07 0 0 1 .26-1.17 6.88 6.88 0 0 0 4.57 1.69q7.85 0 12.72-19.12a39.11 39.11 0 0 1-5.94 5.51c-1.9 1.39-3.39 2.08-4.49 2.08-1.31 0-2-.84-2-2.51a12 12 0 0 1 2.5-6.56 26.08 26.08 0 0 1 6.43-6.45 20.62 20.62 0 0 1 12.21-4.03c1 0 1.47.28 1.47.86a4.38 4.38 0 0 1-.39 1.34l-.1.26a17.58 17.58 0 0 0-2.86-.21 20.28 20.28 0 0 0-7.66 1.28 14.29 14.29 0 0 0-5.53 4.18 17.79 17.79 0 0 0-2.49 3.95 9.16 9.16 0 0 0-1 3.64c0 1.52.48 2.27 1.45 2.27a5.51 5.51 0 0 0 3.11-1.68 23.19 23.19 0 0 0 3.69-4.22 19.52 19.52 0 0 0 3.37-7.6 2.8 2.8 0 0 1 1 2.11c0 1.35-.77 3.08-2.32 5.21l.28-.05 1-.14 1-.17Zm16.36-2a2.68 2.68 0 0 1 .33 1.17q0 2.25-3.12 5.18-4.55 4.29-7.74 4.29c-1.82 0-2.74-1-2.74-3.11a15.28 15.28 0 0 1 2.15-7.39 19.86 19.86 0 0 1 5.49-6.29q4.12-3 7.27-3c1.23 0 1.85.45 1.85 1.36a4 4 0 0 1-.89 2.14 10.41 10.41 0 0 1-2.23 2.27 14.37 14.37 0 0 1-3.15 1.68 8.53 8.53 0 0 1-2.94.78 1.55 1.55 0 0 1-1.52-1.23 12.26 12.26 0 0 0 1.57.14 7.51 7.51 0 0 0 4.32-1.35c1.32-.9 2-1.87 2-2.92 0-.75-.48-1.12-1.45-1.12q-2.61 0-5.32 3.19a19.59 19.59 0 0 0-3.17 5.25A14.36 14.36 0 0 0 124 31.5c0 1.61.67 2.41 2 2.41s3-.8 4.58-2.42a19.41 19.41 0 0 0 3.93-6.25Z" data-name="Layer 1"></path></g></svg> 