<?xml version="1.0" encoding="UTF-8"?> <svg xmlns="http://www.w3.org/2000/svg" viewBox="0 0 511.725 511.725"><path d="M341.675 181.24a7.5 7.5 0 0 0-1.965 10.423c13.502 19.778 20.639 42.902 20.639 66.873 0 65.571-53.346 118.917-118.917 118.917s-118.917-53.346-118.917-118.917c0-65.57 53.346-118.916 118.917-118.916 28.807 0 56.622 10.483 78.321 29.519a7.501 7.501 0 0 0 10.584-.691 7.501 7.501 0 0 0-.692-10.584c-24.436-21.438-55.764-33.243-88.212-33.243-73.842 0-133.917 60.074-133.917 133.916s60.075 133.917 133.917 133.917S375.35 332.378 375.35 258.536c0-27.001-8.04-53.05-23.251-75.33a7.502 7.502 0 0 0-10.424-1.966z"></path><path d="M325.84 215.75a7.5 7.5 0 0 0-10.081-3.299l-54.211 27.48c-5.012-5.415-12.173-8.813-20.116-8.813a27.265 27.265 0 0 0-16.039 5.201l-29.221-23.066a7.5 7.5 0 0 0-9.294 11.773l29.211 23.059a27.26 27.26 0 0 0-2.074 10.45c0 15.118 12.299 27.418 27.417 27.418s27.417-12.3 27.417-27.418c0-1.79-.178-3.537-.507-5.232l54.198-27.474a7.497 7.497 0 0 0 3.3-10.079zm-84.407 55.204c-6.847 0-12.417-5.57-12.417-12.418 0-6.847 5.57-12.417 12.417-12.417s12.417 5.57 12.417 12.417c.001 6.848-5.57 12.418-12.417 12.418z"></path><path d="M414.972 229.631h-12.175c-5.754-32.208-20.948-61.186-42.606-83.963V104.9c0-12.58-10.234-22.814-22.814-22.814H326.65V68.579c0-4.143-3.358-7.5-7.5-7.5s-7.5 3.357-7.5 7.5v41.863c-21.296-10.138-45.104-15.822-70.217-15.822s-48.922 5.684-70.217 15.822V27.37c0-6.821 5.549-12.37 12.371-12.37H299.28c6.821 0 12.371 5.549 12.371 12.37v9.246c0 4.143 3.358 7.5 7.5 7.5s7.5-3.357 7.5-7.5V27.37C326.65 12.278 314.372 0 299.28 0H183.586c-15.092 0-27.371 12.278-27.371 27.37v54.715H145.49c-12.58 0-22.814 10.234-22.814 22.814v40.768c-27.969 29.414-45.159 69.171-45.159 112.868s17.189 83.454 45.159 112.869v40.77c0 12.579 10.234 22.813 22.814 22.813h10.727v10.152c0 4.143 3.358 7.5 7.5 7.5s7.5-3.357 7.5-7.5v-38.51c21.296 10.138 45.104 15.822 70.217 15.822s48.922-5.684 70.217-15.822v74.26c0 8.73-7.103 15.834-15.833 15.834H187.049c-8.73 0-15.833-7.104-15.833-15.834v-3.788c0-4.143-3.358-7.5-7.5-7.5s-7.5 3.357-7.5 7.5v3.788c0 17.002 13.832 30.834 30.833 30.834h108.768c17.001 0 30.833-13.832 30.833-30.834v-45.902h10.726c12.58 0 22.814-10.234 22.814-22.813v-40.77c22.85-24.03 38.494-54.966 43.459-89.311h11.322c10.607 0 19.236-8.629 19.236-19.235v-13.992c.001-10.606-8.628-19.235-19.235-19.235zM326.65 97.085h10.726c4.309 0 7.814 3.506 7.814 7.814v26.837a164.628 164.628 0 0 0-18.541-13.174V97.085zm-181.16 0h10.726v21.478a164.81 164.81 0 0 0-18.541 13.174V104.9c0-4.309 3.506-7.815 7.815-7.815zm10.726 322.903h-10.727c-4.309 0-7.814-3.505-7.814-7.813v-26.838a164.628 164.628 0 0 0 18.541 13.174zm181.16 0H326.65V398.51a164.81 164.81 0 0 0 18.541-13.174v26.838c0 4.309-3.505 7.814-7.815 7.814zm-95.943-12.535c-82.113 0-148.917-66.804-148.917-148.917 0-82.112 66.804-148.916 148.917-148.916S390.35 176.424 390.35 258.536c0 82.113-66.804 148.917-148.917 148.917zm177.775-144.595a4.24 4.24 0 0 1-4.236 4.235h-9.844c.146-2.834.222-5.687.222-8.558 0-4.684-.209-9.32-.596-13.905h10.218a4.24 4.24 0 0 1 4.236 4.235z"></path></svg> 